<?xml version="1.0" encoding="UTF-8"?><svg id="uuid-eb403753-18d4-413e-9e27-a883fb03523e" xmlns="http://www.w3.org/2000/svg" viewBox="0 0 158.34 100"><defs><style>.uuid-0c2be33f-ccae-4b1f-9fef-0955527356df{fill:#70be44;}.uuid-c8002fcc-493a-4a5c-b46e-7b5c280e5df8{fill:#838383;}</style></defs><path class="uuid-c8002fcc-493a-4a5c-b46e-7b5c280e5df8" d="m64.76,27.02l-.82,3.08c-1.13-.45-2.38-.68-3.76-.68-2.23,0-3.34.67-3.34,2.03,0,.53.24.98.72,1.37.43.35,1.25.8,2.48,1.35,2.85,1.27,4.27,3.07,4.27,5.42,0,3.88-2.67,5.83-8.01,5.83-1.67,0-3.21-.21-4.62-.64l.98-3.09c1.36.52,2.67.78,3.94.78s2.09-.09,2.66-.28c1.02-.32,1.53-.95,1.53-1.89,0-.61-.28-1.16-.83-1.64-.5-.43-1.42-.97-2.75-1.6-2.55-1.21-3.83-2.89-3.83-5.05,0-1.92.66-3.31,1.98-4.17,1.32-.86,3.02-1.28,5.09-1.28,1.72,0,3.15.15,4.29.46Z"/><path class="uuid-c8002fcc-493a-4a5c-b46e-7b5c280e5df8" d="m77.33,31.6l-.73,2.82c-.78-.26-1.67-.39-2.66-.39-1.21,0-2.16.47-2.84,1.41-.68.94-1.03,2.02-1.03,3.25,0,2.58.98,3.87,2.94,3.87,1.12,0,2.35-.41,3.69-1.22l-.44,2.75c-1.13.82-2.5,1.23-4.11,1.23-1.91,0-3.31-.6-4.22-1.8-.91-1.2-1.37-2.68-1.37-4.45,0-2.14.73-3.96,2.19-5.47,1.46-1.51,3.38-2.27,5.74-2.27,1.08,0,2.03.09,2.84.26Z"/><path class="uuid-c8002fcc-493a-4a5c-b46e-7b5c280e5df8" d="m91.09,31.11c-.74,5.01-1.11,8.48-1.11,10.39,0,.97.08,2.06.24,3.27l-3.41.39c-.06-.77-.08-1.66-.08-2.68h-.21c-1.03,1.88-2.55,2.82-4.58,2.82-1.17,0-2.04-.44-2.64-1.31-.59-.87-.89-2.07-.89-3.59,0-2.18.76-4.15,2.29-5.9s3.9-2.67,7.12-2.75l.61-.43,2.66-.21Zm-3.55,2.83c-1.93.02-3.35.58-4.26,1.69s-1.36,2.61-1.36,4.5c0,1.71.54,2.57,1.61,2.57.83,0,1.6-.61,2.3-1.82.7-1.21,1.14-2.37,1.32-3.48s.31-2.26.39-3.46Z"/><path class="uuid-c8002fcc-493a-4a5c-b46e-7b5c280e5df8" d="m98.55,25.19c0,.47-.14,1.69-.42,3.64s-.52,3.88-.72,5.78c-.45,4.28-.74,7.7-.87,10.27l-3.59.21c0-.16.15-1.35.45-3.57.3-2.22.58-4.52.83-6.9.38-3.61.57-6.67.57-9.2l3.76-.22Z"/><path class="uuid-c8002fcc-493a-4a5c-b46e-7b5c280e5df8" d="m112.36,34.61c0,2.76-2.96,4.19-8.89,4.3,0,1.22.23,2.13.68,2.74.45.61,1.24.91,2.37.91,1.48,0,3.07-.48,4.76-1.43l-.43,2.75c-1.38.96-3.13,1.44-5.24,1.44-1.89,0-3.28-.57-4.18-1.7-.9-1.13-1.35-2.63-1.35-4.5,0-2.41.76-4.35,2.27-5.81,1.51-1.46,3.3-2.19,5.38-2.19,1.43,0,2.56.3,3.37.89.85.61,1.28,1.48,1.28,2.59Zm-3.09.28c0-.9-.69-1.35-2.07-1.35-.79,0-1.53.29-2.23.87-.7.58-1.16,1.41-1.37,2.49,3.78-.07,5.67-.74,5.67-2.01Z"/><path class="uuid-c8002fcc-493a-4a5c-b46e-7b5c280e5df8" d="m126.97,31.46c-.65,5.12-.97,8.53-.97,10.21,0,.97.07,2.02.22,3.14l-3.41.39c-.06-.75-.08-1.66-.08-2.75h-.19c-1.05,1.93-2.63,2.9-4.74,2.9-2.39,0-3.58-1.38-3.58-4.13,0-.81.12-2.34.37-4.57.24-2.23.37-3.87.37-4.9l3.61-.28c0,.44-.16,1.77-.47,3.98s-.47,3.77-.47,4.68c0,.97.13,1.65.4,2.04.26.39.71.58,1.35.58.8,0,1.59-.55,2.34-1.64.76-1.1,1.22-2.43,1.37-4.02.26-2.57.39-4.35.39-5.34l3.51-.28Z"/><path class="uuid-c8002fcc-493a-4a5c-b46e-7b5c280e5df8" d="m142.38,36.66c0,2.4-.64,4.44-1.92,6.13s-2.98,2.53-5.08,2.53c-1.33,0-2.3-.31-2.9-.94h-.17c-.24,2.27-.44,4.54-.6,6.81l-3.61.07c1.17-8.53,1.75-13.97,1.75-16.33,0-.88-.07-1.91-.22-3.09l3.41-.39c.08.71.13,1.63.13,2.75h.17c1.09-1.93,2.69-2.9,4.8-2.9,1.37,0,2.42.49,3.15,1.46.73.98,1.1,2.28,1.1,3.91Zm-3.5.72c0-2.33-.75-3.5-2.26-3.5-.9,0-1.73.6-2.51,1.8-.78,1.2-1.24,2.49-1.39,3.88l-.28,2.58c.67.42,1.42.62,2.23.62,1.41,0,2.46-.53,3.16-1.6.7-1.07,1.05-2.33,1.05-3.78Z"/><polygon class="uuid-0c2be33f-ccae-4b1f-9fef-0955527356df" points="58.84 4.96 44.04 2 46.28 6.46 23.4 17.95 27.24 25.61 50.12 14.13 52.36 18.59 58.84 4.96"/><circle class="uuid-0c2be33f-ccae-4b1f-9fef-0955527356df" cx="34.2" cy="29.8" r="4.3"/><path class="uuid-0c2be33f-ccae-4b1f-9fef-0955527356df" d="m41.16,33.98l3.84,7.66-22.77,11.39-.13.06h0c-.5.24-1.06.39-1.65.42-2.36.11-4.37-1.71-4.48-4.08-.09-1.79.95-3.38,2.48-4.09l22.71-11.36Z"/></svg>