<?xml version="1.0" encoding="utf-8"?>
<!-- Generator: Adobe Illustrator 27.3.1, SVG Export Plug-In . SVG Version: 6.00 Build 0)  -->
<svg version="1.1" id="Layer_1" xmlns="http://www.w3.org/2000/svg" xmlns:xlink="http://www.w3.org/1999/xlink" x="0px" y="0px"
	 viewBox="0 0 500 500" style="enable-background:new 0 0 500 500;" xml:space="preserve">
<style type="text/css">
	.st0{fill:#0666DB;}
	.st1{opacity:0.8;fill:#FFFFFF;enable-background:new    ;}
	.st2{opacity:0.5;fill:#FFFFFF;enable-background:new    ;}
	.st3{fill:#B8B8B8;}
	.st4{fill:none;stroke:#263238;stroke-width:1.0474;stroke-miterlimit:10;}
	.st5{opacity:0.3;enable-background:new    ;}
	.st6{fill:#FFFFFF;stroke:#263238;stroke-width:1.0474;stroke-linecap:round;stroke-linejoin:round;}
	.st7{fill:#263238;stroke:#263238;stroke-width:1.0474;stroke-linecap:round;stroke-linejoin:round;}
	.st8{fill:#0666DB;stroke:#263238;stroke-width:1.0474;stroke-linecap:round;stroke-linejoin:round;}
	.st9{fill:#737373;stroke:#263238;stroke-width:1.0474;stroke-linecap:round;stroke-linejoin:round;stroke-miterlimit:3.9994;}
	.st10{fill:none;stroke:#263238;stroke-width:1.0474;stroke-linecap:round;stroke-linejoin:round;}
	.st11{fill:none;stroke:#FFFFFF;stroke-width:1.0474;stroke-linecap:round;stroke-linejoin:round;}
	.st12{fill:none;stroke:#263238;stroke-width:3.1423;stroke-linecap:round;stroke-linejoin:round;}
	.st13{fill:#737373;stroke:#263238;stroke-width:1.0474;stroke-linecap:round;stroke-linejoin:round;}
	.st14{fill:#FFFFFF;stroke:#263238;stroke-width:1.0474;stroke-linecap:round;stroke-linejoin:round;stroke-miterlimit:3.9997;}
	.st15{fill:#263238;}
</style>
<g id="background-simple--inject-4">
	<path class="st0" d="M81.9,305.6c0,0,25,57,88.2,75.6S300.8,375,356,356.3s84.2-66.4,71.9-115.4s-58.8-45.4-102.1-88.9
		s-48.3-61.6-108.3-74.4S91.6,115.4,75.2,187S81.9,305.6,81.9,305.6z"/>
	<path class="st1" d="M81.9,305.6c0,0,25,57,88.2,75.6S300.8,375,356,356.3s84.2-66.4,71.9-115.4s-58.8-45.4-102.1-88.9
		s-48.3-61.6-108.3-74.4S91.6,115.4,75.2,187S81.9,305.6,81.9,305.6z"/>
</g>
<g id="Trees--inject-4">
	<path class="st0" d="M403,228.6c0,0,22.9,2.3,34.5,16.5c0,0,12.3-16.5,34.3-16.1c15.7-18.9,13.1-47-5.9-62.7
		c-18.9-15.7-47-13.1-62.7,5.9C389.7,188.5,389.6,212.1,403,228.6L403,228.6z"/>
	<path class="st2" d="M403,228.6c0,0,22.9,2.3,34.5,16.5c0,0,12.3-16.5,34.3-16.1c15.7-18.9,13.1-47-5.9-62.7
		c-18.9-15.7-47-13.1-62.7,5.9C389.7,188.5,389.6,212.1,403,228.6L403,228.6z"/>
	<polygon class="st3" points="436.8,159.1 436,307.7 439.9,307.7 	"/>
	<path class="st3" d="M437.9,240.8c0,0,7.7-13.9,21.7-18.2c0,0-14.7,3.5-22,15.5L437.9,240.8z"/>
	<path class="st3" d="M437.9,201.3c0,0,7.7-13.9,21.7-18.2c0,0-14.7,3.5-22,15.5L437.9,201.3z"/>
	<path class="st3" d="M437.9,221c0,0,7.7-13.9,21.7-18.2c0,0-14.7,3.5-22,15.5L437.9,221z"/>
	<path class="st3" d="M436.8,211.3c0,0-7.5-13.9-20.9-18.2c0,0,14.2,3.5,21.3,15.5L436.8,211.3z"/>
	<path class="st3" d="M436.8,230.7c0,0-7.5-13.9-20.9-18.2c0,0,14.2,3.5,21.3,15.5L436.8,230.7z"/>
	<path class="st0" d="M27.9,228.6c0,0,22.9,2.3,34.5,16.5c0,0,12.3-16.5,34.3-16.1c15.7-18.9,13.1-47-5.9-62.7s-47-13.1-62.7,5.9
		C14.6,188.5,14.4,212.1,27.9,228.6L27.9,228.6z"/>
	<path class="st2" d="M27.9,228.6c0,0,22.9,2.3,34.5,16.5c0,0,12.3-16.5,34.3-16.1c15.7-18.9,13.1-47-5.9-62.7s-47-13.1-62.7,5.9
		C14.6,188.5,14.4,212.1,27.9,228.6L27.9,228.6z"/>
	<polygon class="st3" points="61.7,159.1 60.9,307.7 64.7,307.7 	"/>
	<path class="st3" d="M62.8,240.8c0,0,7.7-13.9,21.7-18.2c0,0-14.7,3.5-22,15.5L62.8,240.8z"/>
	<path class="st3" d="M62.8,201.3c0,0,7.7-13.9,21.7-18.2c0,0-14.7,3.5-22,15.5L62.8,201.3z"/>
	<path class="st3" d="M62.8,221c0,0,7.7-13.9,21.7-18.2c0,0-14.7,3.5-22,15.5L62.8,221z"/>
	<path class="st3" d="M61.7,211.3c0,0-7.5-13.9-20.9-18.2c0,0,14.2,3.5,21.3,15.5L61.7,211.3z"/>
	<path class="st3" d="M61.7,230.7c0,0-7.5-13.9-20.9-18.2c0,0,14.2,3.5,21.3,15.5L61.7,230.7z"/>
	<path class="st0" d="M309.9,243c0,0,18.8,1.9,28.3,13.5c0,0,10-13.5,28.1-13.2c12.8-15.5,10.7-38.5-4.8-51.3s-38.5-10.7-51.3,4.8
		C299,210.2,298.9,229.5,309.9,243L309.9,243z"/>
	<path class="st2" d="M309.9,243c0,0,18.8,1.9,28.3,13.5c0,0,10-13.5,28.1-13.2c12.8-15.5,10.7-38.5-4.8-51.3s-38.5-10.7-51.3,4.8
		C299,210.2,298.9,229.5,309.9,243L309.9,243z"/>
	<polygon class="st3" points="337.5,186.1 336.9,307.7 340,307.7 	"/>
	<path class="st3" d="M338.5,252.9c0,0,6.3-11.4,17.7-14.9c0,0-12,2.9-18,12.7L338.5,252.9z"/>
	<path class="st3" d="M338.5,220.6c0,0,6.3-11.4,17.7-14.9c0,0-12,2.9-18,12.7L338.5,220.6z"/>
	<path class="st3" d="M338.5,236.8c0,0,6.3-11.4,17.7-14.9c0,0-12,2.9-18,12.7L338.5,236.8z"/>
	<path class="st3" d="M337.5,228.8c0,0-6.1-11.4-17.1-14.9c0,0,11.6,2.9,17.4,12.7L337.5,228.8z"/>
	<path class="st3" d="M337.5,244.7c0,0-6.1-11.4-17.1-14.9c0,0,11.6,2.9,17.4,12.7L337.5,244.7z"/>
	<path class="st0" d="M128.4,243c0,0,18.8,1.9,28.3,13.5c0,0,10-13.5,28.1-13.2c12.8-15.5,10.7-38.5-4.8-51.3s-38.5-10.7-51.3,4.8
		C117.5,210.2,117.4,229.5,128.4,243L128.4,243z"/>
	<path class="st2" d="M128.4,243c0,0,18.8,1.9,28.3,13.5c0,0,10-13.5,28.1-13.2c12.8-15.5,10.7-38.5-4.8-51.3s-38.5-10.7-51.3,4.8
		C117.5,210.2,117.4,229.5,128.4,243L128.4,243z"/>
	<polygon class="st3" points="156,186.1 155.4,307.7 158.5,307.7 	"/>
	<path class="st3" d="M157,252.9c0,0,6.3-11.4,17.7-14.9c0,0-12,2.9-18,12.7L157,252.9z"/>
	<path class="st3" d="M157,220.6c0,0,6.3-11.4,17.7-14.9c0,0-12,2.9-18,12.7L157,220.6z"/>
	<path class="st3" d="M157,236.8c0,0,6.3-11.4,17.7-14.9c0,0-12,2.9-18,12.7L157,236.8z"/>
	<path class="st3" d="M156,228.8c0,0-6.1-11.4-17.1-14.8c0,0,11.6,2.9,17.4,12.7L156,228.8z"/>
	<path class="st3" d="M156,244.7c0,0-6.1-11.4-17.1-14.9c0,0,11.6,2.9,17.4,12.7L156,244.7z"/>
	<line class="st4" x1="34.8" y1="308.2" x2="466.3" y2="308.2"/>
</g>
<path class="st5" d="M152.6,356.5c0,3-18.4,5.4-41.2,5.4s-41.2-2.4-41.2-5.4s18.4-5.4,41.2-5.4S152.6,353.5,152.6,356.5z"/>
<path class="st5" d="M238.8,356.5c0,3-18.4,5.4-41.2,5.4s-41.2-2.4-41.2-5.4s18.4-5.4,41.2-5.4S238.8,353.5,238.8,356.5z"/>
<path class="st5" d="M353,356.5c0,3-18.4,5.4-41.2,5.4s-41.2-2.4-41.2-5.4s18.4-5.4,41.2-5.4S353,353.5,353,356.5z"/>
<path class="st5" d="M448.4,356.5c0,3-18.4,5.4-41.2,5.4s-41.2-2.4-41.2-5.4s18.4-5.4,41.2-5.4S448.4,353.5,448.4,356.5z"/>
<path class="st6" d="M316.3,198.8c0,0-1.7,7-1.7,8.2c0,0.7-0.1,1.5-0.2,2.2c0,0-3.6,4.3-3.1,5.5c0.6,0.9,1.4,1.7,2.4,2.2
	c0,0,1.9,7,3.9,7.5c2,0.4,4,0.6,6,0.7l0.7,5.8l9.6-1.4l-2.4-8.7l1-7.5c0,0,1.7-3.1,0-8.2s-5.3-5.3-7.7-5.3
	C321.9,199.6,319.1,199.2,316.3,198.8z"/>
<path class="st7" d="M320.6,195.2c0,0-8.4-0.2-8.2,1.9s8.9,5,8.9,5s-2.9,1.9-1.5,3.9s4.8,3.6,4.8,3.6s-1,4.1,0.5,4.3
	s2.4-1.9,2.6-2.6s2.9-0.5,3.6,1.4c0.4,1,0.7,2.1,0.7,3.1c0,0,2.9-8.7,3.4-12.5S325.2,195.2,320.6,195.2z"/>
<path class="st6" d="M325.9,214c0,0,2.9-6.4,4.6-3.2s1,6.4-0.7,6.8s-3.1,0.7-3.1,0.7"/>
<path class="st7" d="M314.1,280.8c-0.5,0.5-8.2,17.1-9.1,22.6s-7.2,38.5-7.5,39.9s-13.5,4.3-14.4,4.6s1,2.9,3.9,3.6s11.1,4.1,13,2.2
	s4.6-12.8,5.3-14s14.3-33.1,14.3-33.1s6.9-15.3,8.4-16.8s-1.7-7.9-2.9-9.8S317.5,276.9,314.1,280.8z"/>
<path class="st7" d="M312.7,281c0,0,3.4,16.1,5,21.9c1.6,4.8,3.9,9.4,7,13.5c1.9,2.6,11.3,26,11.3,26l1.4,3.6c0,0-0.5,1.4-3.1,3.4
	s-10.1,5-8.2,5.8s9.6,0.7,13.2,0.5c3.1-0.2,6-1.6,8.2-3.9c1.5-1.7-2.4-6.5-2.4-7.5s-8.4-30.3-8.9-31.8s-2.9-11.8-2.9-11.8V289
	c0,0,1.2-2.2,1.2-7s-3.6-5.8-3.6-5.8l-19.7,1.9L312.7,281z"/>
<path class="st8" d="M311,279.6c0,0,0.5,4.1,1.9,4.3s16.4,4.3,22.9-0.5c0,0,1.2-3.6,0.5-4.6s-2.4-0.5-11.1-0.5S311,278.4,311,279.6z
	"/>
<path class="st8" d="M333.1,225.7c0,0-8.9,1.2-12.8,5s-7.2,10.8-8.9,17.3s-2.9,30.3-0.5,31.5s22.6,2.4,26,1s-0.2-12.8-0.2-17.1
	s3.9-19,3.1-27.2S333.1,225.7,333.1,225.7z"/>
<path class="st7" d="M301,250.7c-0.1-9.9-4.1-18.4-9.5-22v-2l-14.8,0.1c-8.3,0.1-15,11-14.8,24.3c0.2,13.3,7,24.1,15.3,24L292,275
	v-2C297.2,269.1,301,260.6,301,250.7z"/>
<path class="st6" d="M307.6,250.6c-0.1-10.4-4.1-19.3-9.8-23.1v-2.1l-6.3,0.1c-8.8,0.1-15.7,11.5-15.6,25.5
	c0.2,14,7.4,25.3,16.1,25.2l6.3-0.1V274C303.9,270,307.8,261,307.6,250.6z"/>
<ellipse transform="matrix(0.9999 -1.064769e-02 1.064769e-02 0.9999 -2.6524 3.1892)" class="st9" cx="298.2" cy="250.7" rx="15.9" ry="25.4"/>
<path class="st7" d="M310.4,250.1c0.1,6.6-3.2,12.1-7.4,12.1s-7.6-5.3-7.6-12s3.2-12,7.4-12.1S310.3,243.5,310.4,250.1z"/>
<path class="st7" d="M428.2,300c0.8-6.2,1.2-12.4,1-18.6c-3.2,1.5-22.2,2-24,2.1s-20.7-0.6-24-2.1c-0.1,6.2,0.2,12.4,1,18.6
	c1.3,8.1,12.8,40.6,13.1,42.2c0.3,1.5,0.8,3,1.3,4.5c0,0-6.5,4.7-9.4,6.5s-0.8,2.6,2.1,2.6s8.9-0.8,10.7-0.8c1.6,0,4.4-1.4,5.1-1.8
	c0.7,0.3,3.5,1.8,5.1,1.8c1.8,0,7.9,0.8,10.7,0.8s5-0.8,2.1-2.6s-9.4-6.5-9.4-6.5c0.5-1.5,1-2.9,1.3-4.5
	C415.4,340.5,426.9,308.1,428.2,300z"/>
<path class="st8" d="M401.3,230.5c0,0-10.1,3.3-15.4,6.6s-10.5,21.3-10.5,22c-0.3,1.3-0.7,2.5-1.2,3.7c0,0-5.2-1.2-6.3,3.1
	s5.2,10,8.5,10.1s4.4-0.9,4.4-0.9s-2.1,4.2-1.2,5.9s8.2,8.2,22.7,8s25-2.6,26.5-4.7s1.8-6.5,1.8-6.5s5.4-1.4,7.3-4.9
	s1.6-7.2,0.5-10.8s-6.5-14.3-10.1-20.2s-11.4-9.2-15-10.3S403.8,230.5,401.3,230.5z"/>
<path class="st6" d="M404.4,245.2c1.5-0.5,6-4.5,7.8-8.6c0.7-1.5,1.2-3.2,1.5-4.9l-0.2-0.1c-3.7-1.1-9.6-1.2-12-1.2
	c0,0-2.1,0.7-4.9,1.8c0,2.2,0.4,4.3,1.2,6.3C399.2,242.6,403,245.7,404.4,245.2z"/>
<path class="st10" d="M421.1,253.4c0,0,4.2,22.4,8.9,24.6"/>
<path class="st10" d="M380.9,275.2c0,0,5.2-19.7,5.6-21.6"/>
<path class="st10" d="M427.8,263.5c0,0-2.9,0.6-2.9,2.8"/>
<path class="st10" d="M378.6,263.8c0,0,3.2,2.1,2.9,5.3"/>
<path class="st8" d="M400.2,355c1.6,0,4.4-1.4,5.1-1.8c0.7,0.3,3.5,1.8,5.1,1.8c1.8,0,7.9,0.8,10.7,0.8s5-0.8,2.1-2.6
	c-2.5-1.6-7.8-5.4-9.1-6.3c-3.1,2.8-9.2,2.1-9.2,2.1c-1.2-0.2-2.5-0.4-3.7-0.8c-1.8-0.5-4.5-1.6-4.5-1.6s-6.5,4.7-9.4,6.5
	s-0.8,2.6,2.1,2.6S398.4,355,400.2,355z"/>
<line class="st11" x1="404.9" y1="346.7" x2="404.9" y2="301"/>
<polyline class="st10" points="405.3,353.2 404.9,348.9 404.9,346.7 "/>
<line class="st11" x1="401.2" y1="299.4" x2="408.8" y2="299.4"/>
<path class="st7" d="M391.3,204.3c0,0-5.4,3.3-4.6,6.1s3.3,3.4,2.7,5s-2.4,2.6-0.3,3.6c1.2,0.5,2.5,1,3.8,1.2c0,0,2,6.9,5.4,8.2
	s9.4,0.4,13.6-0.1c2.9-0.3,5.4-2.3,6.1-5.2c0.4-1.5-1.8,0.3-2.9-1.4s0.5-5.9,1.8-9.5s-2.5-10.6-7.2-12.9S396,198.2,391.3,204.3z"/>
<path class="st6" d="M400.5,228c-0.7,2.3-1.2,4.6-1.4,7c-0.2,3,2.3,6.3,4.9,6.1s4.9-5.4,5.2-8s-0.9-9.6-0.9-9.6s-4,0.2-5.6,1.6
	C401.8,225.9,401,226.9,400.5,228z"/>
<path class="st6" d="M396.9,208.1c0,0,0.1,4.1,4.2,8c2.5,2.4,5.4,4.2,8.6,5.4c-0.1,0.9-0.3,1.8-0.7,2.6c-0.4,0.7-1.1,1.1-1.9,1h-1.4
	c0,0-2,4.7-4.4,5.4s-8.4,0.2-9.2-5.8s-1-10.9-0.3-12.1S396.9,208.1,396.9,208.1z"/>
<path class="st6" d="M439.7,260.8c0.6-1.3,1-2.6,1.1-4c0-1.8-3.4-4.4-4-5.1s-1.2-0.6-1.4,0.3c0,1,0.4,2,1.2,2.7
	c0.5,0.4,0.9,0.9,1,1.6c0.1,0.5-1.1,2.7-0.5,4.1S439.4,262.3,439.7,260.8z"/>
<path class="st12" d="M304.3,250.6c0,0,14.7,4.7,23.6,15.7c8.9,11,14.7,9.4,25.7,5.8s15.2-16.8,30.4-5.8c15.2,11,18.3,15.2,30.9,8.9
	s19.4-21.5,30.9-16.2s6.3,32,7.3,45s-0.5,45.6,2.1,49.8s29.3,1,29.3,1"/>
<path class="st8" d="M331.9,233.1c0,0-2.9-4.8-7.2-3.5c-4.6,1.3-6.9,7.9-8,11.9s-1.8,8.5-3.8,12.3c0,0-8.7-0.1-13.5-1.6
	c-3.7-1.1-7.3-2.5-10.9-4c0,0-1.7-2.4-2.9-2.9s-4.4-1.4-4.6-0.7s3.6,3.1,3.6,3.1s-7.2,1-7.9,1.8s5.1,3.1,5.1,3.1s2.2,0.7,7.5-0.6
	c0,0,19.4,12.3,23.2,13.7s6,1.9,8.6-3.2s11.4-17.7,12.8-22.8"/>
<path class="st6" d="M293.5,250.2c-2.8-1.1-5-2-5-2s-1.7-2.4-2.9-2.9s-4.4-1.4-4.6-0.7s3.6,3.1,3.6,3.1s-7.2,1-7.9,1.8
	s5.1,3.1,5.1,3.1s2.2,0.7,7.5-0.6l2.7,1.7L293.5,250.2z"/>
<path class="st6" d="M368.2,262.6c-0.6-1.3-1-2.6-1.1-4c0-1.8,3.4-4.4,4-5.1s1.2-0.6,1.4,0.3c0,1-0.4,2-1.2,2.7
	c-0.5,0.4-0.9,0.9-1,1.6c-0.1,0.4,1.1,2.7,0.5,4.1S368.5,264.1,368.2,262.6z"/>
<path class="st6" d="M370.5,257.1c0,0-2.8,5.1-1.2,7s3.2-4.2,3.5-5.8S371.5,255,370.5,257.1z"/>
<path class="st6" d="M372.8,259c0,0-2.8,5.1-1.2,7s3.2-4.2,3.5-5.8S373.9,256.8,372.8,259z"/>
<path class="st6" d="M375.4,259.4c0,0-2.8,5.1-1.2,7s3.2-4.2,3.5-5.8S376.4,257.3,375.4,259.4z"/>
<path class="st6" d="M378.6,259.5c0,0-2.6,4-1.2,5.5s3-3.2,3.2-4.6S379.5,257.7,378.6,259.5z"/>
<path class="st6" d="M437.9,257.4c0,0,2.8,5.1,1.2,7s-3.2-4.2-3.5-5.8S436.8,255.2,437.9,257.4z"/>
<path class="st6" d="M435.5,259.1c0,0,2.8,5.1,1.2,7s-3.2-4.2-3.5-5.8S434.5,257,435.5,259.1z"/>
<path class="st6" d="M433,259.6c0,0,2.8,5.1,1.2,7s-3.2-4.2-3.5-5.8S432,257.5,433,259.6z"/>
<path class="st6" d="M429.8,259.7c0,0,2.6,4,1.2,5.5s-3-3.2-3.2-4.6S428.8,257.9,429.8,259.7z"/>
<path class="st6" d="M85.7,316.6v5.7c-2,2.2-3.4,4.8-4.1,7.6c-1.2,4.6-5,24.6-4,25.1s10.4,2.7,13.4,2.2c3.4-0.5,6.4-0.3,4.6-2.2
	s-10.8-7.2-10.8-7.2s10-14.5,12.2-19.8s2.6-13.6,2.6-13.6l-13.4-0.5L85.7,316.6z"/>
<path class="st7" d="M91,357.3c3.4-0.5,6.4-0.3,4.6-2.2s-10.8-7.2-10.8-7.2l-0.3,2.1l-6.6-0.8c-0.5,3.3-0.7,5.8-0.3,6
	C78.7,355.5,88,357.7,91,357.3z"/>
<path class="st6" d="M118.6,319.6l1.6,2.8c-1.3,2.5-1.5,5.4-0.5,8.1c1.6,4.8,5.2,22.5,5.2,23.6s2.2,1.7,4,1.7s6.7,0.3,7.4,0.3
	s5.7,0.9,7.4-0.2s-2.2-3.1-4.8-4.3s-8.3-4.3-8.3-4.3s1.4-14.1,1.4-20.3s1.4-8.3-0.5-12s-13.8,1.7-13.8,1.7L118.6,319.6z"/>
<path class="st7" d="M138.7,351.6c-2.6-1.2-8.3-4.3-8.3-4.3l-0.7,2.6l-5.5,1c0.3,1.7,0.5,2.9,0.5,3.1c0,1,2.2,1.7,4,1.7
	s6.7,0.3,7.4,0.3s5.7,0.9,7.4-0.2S141.3,352.8,138.7,351.6z"/>
<path class="st6" d="M109.3,205c-1.3-2.3-2.9-4.5-4.6-6.5c-2.4-2.7-9.8-2.5-13.1,1s-2.2,9.8-1,11.6s3.7,10.1,3.7,10.1l0.6,5.9
	l13.8,4.9l-2.8-9.6c0,0,5.3-1,5.8-2.7s-0.9-7.3-0.9-7.3s1.8-1.2,1.6-2.2S109.3,205,109.3,205z"/>
<path class="st7" d="M93.4,211.4c0,0,2.4,2,3.7-0.3s2.3-4.5,2.3-6.5s-4.8-3.6-1.6-4.9s5.6,1.6,7-1.3s0.1-3.2-7.6-3.2
	s-11.6,3.9-10,8.7c1.3,3.6,2.9,7,4.8,10.3L93.4,211.4z"/>
<path class="st10" d="M109.8,208.4c0,2-1.7,3.7-3.7,3.7s-3.7-1.7-3.7-3.7s1.7-3.7,3.7-3.7S109.8,206.4,109.8,208.4L109.8,208.4z"/>
<path class="st10" d="M109.2,205.1c0.4-0.2,0.9-0.3,1.4-0.3c1.9,0,3.5,1.6,3.5,3.5c0,1.3-0.7,2.4-1.8,3"/>
<line class="st10" x1="102.3" y1="208.4" x2="93.4" y2="211.4"/>
<path class="st6" d="M96,213.3c0,0-1.8-3.7-3.6-3s-0.9,6.5,0.9,7.1c1.2,0.3,2.5-0.1,3.4-0.9c0,0,1.5,3.1,3.3,4"/>
<path class="st8" d="M84.3,280l-1.1,14.2l-3.3,21c0,0,7.8,6.1,15,6.1s9.2-0.9,9.2-0.9l4.1-21.6l4.1,22.7c0,0,8-1.3,13.3-2.6
	c3.7-1,7.2-2.6,10.3-4.8l-10.7-27.9l-2.3-14.4c0,0-12,1.1-19.2,1.5s-16.8-1.5-16.8-1.5L84.3,280z"/>
<path class="st7" d="M91.9,223.2c0,0,17,5.9,22.2,11.7c2.9,3.2,6.2,25.1,7.3,30.5s3.2,16,3.2,16s-10.4,4.7-18.4,4.9
	s-23.4-3.5-23.4-3.5s1.8-23.7,1.8-34.8s0.2-18.2,2-21.7C86.8,226.2,89.8,222.8,91.9,223.2z"/>
<path class="st10" d="M87.5,284.4c0,0,0.9,15.5,0,21.2c-0.6,3.7-1.8,7.3-3.3,10.7"/>
<path class="st10" d="M87.8,291.8c2.8-1,4.9-3.4,5.5-6.3"/>
<path class="st10" d="M80.8,312.3c0,0,9.2,7.9,23.6,5"/>
<path class="st10" d="M111.8,316.9c0,0,15.1-1.7,21.8-6.1"/>
<path class="st7" d="M179.6,216c0,0-1.5,1.1-6.6,4.8s-1.1,9.3-1.1,9.3s-3.6,0.6-8.5,5.7s2.2,13.9,8.7,15.2s14.2-6.8,16.6-14.3
	s-0.7-18.9-2.3-21.3S179.6,216,179.6,216z"/>
<path class="st7" d="M198.8,215c0,0,2.5-3.9,0.2-9.6s-9.1-8.3-15.8-4.1c-4.6,2.7-6.7,8.2-5.3,13.3c0.6,2.6,3.9,6.6,4.6,6.7
	s6.7,2.2,10.8,0.3S198.8,215,198.8,215z"/>
<path class="st13" d="M169.4,347c0,0,4.8,7.4,13,8.6s0.8-6.1-0.6-7.3S170.5,344.9,169.4,347z"/>
<path class="st13" d="M213.4,348.9c0,0,9.1,2.2,8.4,4.2s-8.1,1.8-12.4,0.7s-8.4-2.8-7.8-4.6S213.4,348.9,213.4,348.9z"/>
<path class="st8" d="M187.6,229.7c0,0-12.1,1.8-14.4,6.1s0.9,27.7,0.9,27.7s-5.2,11.4-5.2,18.8s3.2,20.3,2.9,23.5s-3.6,40-3.6,41
	s7,3.2,17.1,4.4s29.4-2.4,29.4-2.4s-0.4-21.7,0.6-34.6s-0.4-24.6-3-29.4s-14.5-22.2-14.5-22.2s5.8-10.5,6.2-15.1s-1.5-7-5.9-12.3
	C195.5,232,191.7,230,187.6,229.7z"/>
<path class="st13" d="M197.8,262.6c0,0,5.8-10.5,6.2-15.1s-1.5-7-5.9-12.3c-0.2-0.3-0.4-0.5-0.6-0.7l-0.2,0.1
	c-4.5,7.4-19.4,19.9-23.8,23.6c0.3,3.1,0.6,5.3,0.6,5.3s-5.2,11.4-5.2,18.8c0.1,3.4,0.4,6.7,1,10c10.5-6,24.6-17.2,32.2-23.5
	C199.7,265.2,197.8,262.6,197.8,262.6z"/>
<path class="st6" d="M185.3,221.1c0.3,2.7,0.5,5.5,0.6,8.3c-0.2,2.1,0.5,6.7,4,8.2s5.7-0.6,5.7-2.6c-0.1-1.7-0.5-3.4-1-5l0.1-5.6
	C194.7,224.3,188.6,220.5,185.3,221.1z"/>
<path class="st6" d="M182.2,217.4c0,0-2.6-2.3-2.6,1s2.9,4.3,3.6,4.6c0.6,0.1,1.1-0.1,1.6-0.4c0,0,4.7,4,8.4,4.3s5.3-1.5,6.1-8.3
	s-6.1-13.7-6.1-13.7S187.1,216,182.2,217.4z"/>
<path class="st6" d="M125,281.2c0-1.2,0.2-2.3,0.6-3.4c0.6-1.4,4-2.1,4.8-2.4s1.1,0,0.9,0.7c-0.4,0.8-1,1.4-1.8,1.6
	c-0.5,0.1-1,0.4-1.3,0.8c-0.2,0.3-0.1,2.4-1,3.2S124.7,282.4,125,281.2z"/>
<path class="st12" d="M201.6,251.1c0,0-12-1.6-17.3,6.8s-15.2,37.7-33.5,42.4s-23.6-33-34.6-32c-10.5,1-17.8,0-24.1,11.5
	C88.7,286,71.9,353.3,64,354c-25.3,2.2-41.6,0.8-41.6,0.8"/>
<path class="st7" d="M92.7,223.7c0,0-2.8-1.1-6.5,1.1s-13.7,26.4-12.9,29c0.8,2.6,11.3,7.4,17.2,9s16.6,3.7,16.6,3.7
	s3.3,5.2,4.4,5.4c1.6,0,3.2-0.2,4.8-0.5c0,0,2,1.7,2.8-0.2s-0.7-4.2-2.4-6.1s-8.7-2.8-8.7-2.8l-19-13.1l8-14.8"/>
<path class="st6" d="M111.5,271.9c1.6,0,3.2-0.2,4.8-0.5c0,0,2,1.7,2.8-0.2s-0.7-4.2-2.4-6.1s-8.7-2.8-8.7-2.8l-19-13.1l2.8-5.3
	c-7.1-4.4-11.8-4.1-14.4-3.2c-2.6,6.1-4.5,11.9-4.2,13.1c0.7,2.6,11.3,7.4,17.2,9s16.6,3.7,16.6,3.7S110.4,271.7,111.5,271.9z"/>
<path class="st7" d="M230.5,251.5c-0.8-8.7-5-15.9-10-18.8l-0.2-1.8l-13.1,1.2c-7.4,0.7-12.4,10.8-11.3,22.5
	c1.1,11.8,7.9,20.7,15.3,20l13.1-1.2l-0.2-1.8C228.5,268.1,231.3,260.2,230.5,251.5z"/>
<path class="st6" d="M236.4,251c-0.9-9.2-5-16.7-10.3-19.7l-0.2-1.9l-5.6,0.5c-7.7,0.7-13.1,11.3-11.9,23.7
	c1.1,12.4,8.3,21.8,16.1,21.1l5.6-0.5l-0.2-1.9C234.5,268.3,237.2,260.1,236.4,251z"/>
<ellipse transform="matrix(0.9957 -9.237734e-02 9.237734e-02 0.9957 -22.2851 22.1382)" class="st14" cx="228" cy="251.8" rx="14" ry="22.5"/>
<path class="st13" d="M248,243.2l-21.7,2c-1.3,0.1-2.4-0.8-2.5-2.1l0,0l0,0c-0.1-1.3,0.8-2.4,2.1-2.5l0,0l21.7-2
	c1.3-0.1,2.4,0.8,2.5,2.1l0,0l0,0C250.2,242,249.3,243.1,248,243.2L248,243.2z"/>
<path class="st13" d="M249.6,260.4l-21.7,2c-1.3,0.1-2.4-0.8-2.5-2.1l0,0l0,0c-0.1-1.3,0.8-2.4,2.1-2.5l0,0l21.7-2
	c1.3-0.1,2.4,0.8,2.5,2.1l0,0C251.8,259.2,250.9,260.3,249.6,260.4L249.6,260.4z"/>
<path class="st8" d="M180.1,231.3c0,0-5.2,1-7.7,4s-7.5,26.2-6.4,28.8s19.9,6,25.7,6.5c4.7,0.2,9.3,0,13.9-0.6c0,0,5-0.1,6.4-0.4
	s3.9-1.6,3.9-2.1s-0.2-1.7-2.1-1.9s-5.9-1.5-6.4-1.5c1.2-0.3,2.4-0.6,3.6-0.7c0,0,0.3-1-1.8-1s-3.9-0.1-4.7,1
	c-0.6,0.9-1,1.8-1.4,2.8c0,0-11.6,0.8-17.8-2.2s-8.2-4.1-8.2-4.1l4.5-18"/>
<path class="st6" d="M212,269.7c1.4-0.2,3.9-1.6,3.9-2.1s-0.2-1.7-2.1-1.9s-5.9-1.5-6.4-1.5c1.2-0.3,2.4-0.6,3.6-0.7
	c0,0,0.3-1-1.8-1s-3.9-0.1-4.7,1c-0.6,0.9-1,1.8-1.4,2.8c0,0-11.6,0.8-17.8-2.2s-8.2-4.1-8.2-4.1l2.7-11c-3.6-1.5-7.3-2.4-11.2-2.8
	c-1.9,7.5-3.4,16.4-2.7,18c1.2,2.7,19.9,6,25.7,6.5c4.7,0.2,9.3,0,13.9-0.6C205.6,270,210.6,269.9,212,269.7z"/>
<path class="st6" d="M127.5,279.2c0,0-3.9,2.9-3.3,4.8s3.8-2,4.6-3.1S129.1,278,127.5,279.2z"/>
<path class="st6" d="M128.3,281.8c0,0-3.8,2.9-3.3,4.8s3.8-2,4.6-3.1S129.8,280.6,128.3,281.8z"/>
<path class="st6" d="M130.1,283.5c0,0-3.8,2.9-3.3,4.8s3.8-2,4.6-3.1S131.6,282.2,130.1,283.5z"/>
<path class="st6" d="M131.6,284.9c0,0-3.3,2.1-2.8,3.7s3.3-1.4,4-2.3S133,283.9,131.6,284.9z"/>
<g>
	<path class="st15" d="M56.7,105.1c1.9,0,3.5,0.3,5,1c1.4,0.6,2.5,1.5,3.3,2.7c0.8,1.2,1.1,2.6,1.1,4.1s-0.4,3-1.1,4.2
		c-0.8,1.2-1.8,2.1-3.3,2.7c-1.4,0.6-3.1,1-5,1h-3.9v5.3c0,0.7-0.3,1.3-0.8,1.8c-0.5,0.5-1.1,0.7-1.9,0.7c-0.7,0-1.3-0.2-1.9-0.7
		c-0.5-0.5-0.8-1.1-0.8-1.7v-18.5c0-0.7,0.3-1.3,0.8-1.8c0.5-0.5,1.1-0.7,1.9-0.7H56.7z M56.7,116.1c1.2,0,2.2-0.3,2.9-0.9
		c0.7-0.6,1.1-1.3,1.1-2.3s-0.4-1.7-1.1-2.3c-0.7-0.6-1.7-0.9-2.9-0.9h-3.9v6.3H56.7z"/>
	<path class="st15" d="M79.1,112c1.2,0.6,2.1,1.4,2.7,2.4s1,2.2,1,3.4v8.3c0,0.6-0.2,1.1-0.7,1.6c-0.5,0.4-1,0.7-1.7,0.7
		c-0.6,0-1.1-0.2-1.5-0.5c-0.4-0.3-0.7-0.7-0.8-1.2h-0.4c-0.5,0.6-1.1,1.1-1.9,1.5c-0.8,0.4-1.7,0.6-2.6,0.6c-1.1,0-2-0.2-2.9-0.7
		c-0.8-0.5-1.5-1.1-2-1.8c-0.5-0.8-0.7-1.6-0.7-2.5c0-1.6,0.6-3,1.9-4c1.2-1,3-1.6,5.3-1.6h3.2v-0.3c0-0.9-0.3-1.6-0.8-2.1
		c-0.5-0.5-1.2-0.8-2.1-0.8c-0.5,0-0.9,0.1-1.2,0.2c-0.3,0.2-0.7,0.4-1.1,0.9c-0.4,0.4-0.7,0.6-1,0.7c-0.3,0.1-0.7,0.2-1.1,0.2
		c-0.6,0-1.1-0.2-1.5-0.5c-0.4-0.4-0.6-0.8-0.6-1.4c0-0.5,0.2-1,0.5-1.4c0.4-0.5,0.8-0.9,1.4-1.3c1.2-0.8,2.7-1.3,4.5-1.3
		C76.6,111.1,77.9,111.4,79.1,112z M77.9,121.4h-3.2c-0.7,0-1.3,0.2-1.7,0.6c-0.4,0.4-0.6,0.8-0.6,1.4c0,0.5,0.2,0.9,0.5,1.3
		c0.4,0.3,0.9,0.5,1.6,0.5c0.6,0,1.2-0.2,1.9-0.5c0.6-0.3,1.2-0.7,1.6-1.2V121.4z"/>
	<path class="st15" d="M100.9,112.1c0.5,0.4,0.7,1,0.7,1.6v14.9c0,1.3-0.3,2.4-1,3.5c-0.7,1.1-1.6,1.9-2.9,2.5
		c-1.2,0.6-2.7,0.9-4.3,0.9c-1.1,0-2.1-0.1-3-0.4c-0.9-0.3-1.7-0.6-2.3-1.1c-1-0.7-1.5-1.5-1.5-2.3c0-0.6,0.2-1,0.6-1.4
		c0.4-0.4,0.9-0.5,1.5-0.5c0.3,0,0.5,0,0.8,0.1c0.3,0.1,0.6,0.3,0.9,0.5c0.5,0.4,1,0.7,1.5,0.8c0.5,0.1,1,0.2,1.6,0.2
		c1,0,1.8-0.3,2.4-0.8c0.6-0.6,0.9-1.3,0.9-2.1v-2.4h-0.3c-0.4,0.6-0.9,1-1.6,1.3c-0.7,0.3-1.5,0.5-2.3,0.5c-1.1,0-2.2-0.3-3.2-0.9
		c-1-0.6-1.8-1.5-2.4-2.6c-0.6-1.1-0.9-2.3-0.9-3.6v-2.7c0-1.3,0.3-2.5,0.9-3.6c0.6-1.1,1.4-1.9,2.4-2.6c1-0.6,2.1-0.9,3.2-0.9
		c1,0,1.8,0.2,2.5,0.6c0.7,0.4,1.2,0.9,1.5,1.4h0.4c0.1-0.5,0.4-0.9,0.7-1.2c0.4-0.3,0.9-0.5,1.6-0.5
		C99.9,111.4,100.5,111.6,100.9,112.1z M90.9,120.9c0,0.9,0.3,1.6,0.9,2.2c0.6,0.6,1.3,0.9,2.1,0.9c0.8,0,1.5-0.3,2.1-0.9
		c0.6-0.6,0.9-1.3,0.9-2.2v-2.7c0-0.9-0.3-1.6-0.9-2.2c-0.6-0.6-1.3-0.9-2.1-0.9c-0.8,0-1.5,0.3-2.1,0.9c-0.6,0.6-0.9,1.3-0.9,2.2
		V120.9z"/>
	<path class="st15" d="M117,112c1.2,0.6,2.1,1.5,2.8,2.6c0.7,1.1,1,2.3,1,3.6v1.1c0,0.6-0.2,1.1-0.7,1.6c-0.5,0.4-1,0.7-1.7,0.7H110
		v0.3c0,0.9,0.3,1.7,0.8,2.3c0.6,0.6,1.3,0.9,2.3,0.9c0.6,0,1.2-0.1,1.7-0.2c0.5-0.1,1-0.4,1.5-0.7c0.4-0.2,0.7-0.4,1-0.5
		c0.3-0.1,0.5-0.1,0.9-0.1c0.5,0,1,0.2,1.3,0.5c0.3,0.4,0.5,0.8,0.5,1.2c0,0.4-0.1,0.7-0.3,1.1s-0.6,0.8-1,1.1
		c-0.6,0.4-1.4,0.8-2.4,1c-1,0.3-2.1,0.4-3.3,0.4c-1.5,0-2.9-0.3-4.1-1c-1.2-0.6-2.1-1.5-2.8-2.6c-0.7-1.1-1-2.3-1-3.5v-3.5
		c0-1.3,0.3-2.5,1-3.6c0.7-1.1,1.6-1.9,2.8-2.6s2.5-0.9,4.1-0.9C114.4,111.1,115.8,111.4,117,112z M110.8,115.8
		c-0.6,0.6-0.9,1.3-0.9,2.2v0.1h6v0c0-0.9-0.3-1.7-0.8-2.2c-0.5-0.6-1.3-0.9-2.2-0.9C112.1,115,111.4,115.3,110.8,115.8z"/>
	<path class="st15" d="M137,127.7c-1.5-0.8-2.6-1.8-3.4-3.2s-1.2-2.9-1.2-4.7v-12.6c0-0.7,0.3-1.3,0.8-1.8c0.5-0.5,1.1-0.7,1.9-0.7
		c0.7,0,1.4,0.2,1.9,0.7c0.5,0.5,0.8,1.1,0.8,1.8v12.6c0,1.3,0.4,2.4,1.2,3.2c0.8,0.8,1.9,1.2,3.1,1.2c1.3,0,2.3-0.4,3.1-1.2
		c0.8-0.8,1.2-1.9,1.2-3.2v-12.6c0-0.7,0.3-1.3,0.8-1.8c0.5-0.5,1.1-0.7,1.9-0.7c0.7,0,1.3,0.2,1.9,0.7c0.5,0.5,0.8,1.1,0.8,1.8
		v12.6c0,1.7-0.4,3.3-1.2,4.7s-1.9,2.4-3.4,3.2c-1.5,0.8-3.1,1.2-5,1.2C140.1,128.9,138.5,128.5,137,127.7z"/>
	<path class="st15" d="M168.1,111.9c0.9,0.6,1.7,1.4,2.2,2.4c0.5,1,0.8,2.2,0.8,3.6v8.2c0,0.6-0.2,1.1-0.7,1.6
		c-0.5,0.4-1,0.7-1.7,0.7c-0.7,0-1.3-0.2-1.7-0.7c-0.5-0.4-0.7-1-0.7-1.6V118c0-0.9-0.3-1.6-0.8-2.1c-0.5-0.5-1.2-0.8-2-0.8
		s-1.5,0.3-2,0.8s-0.8,1.2-0.8,2.1v8.2c0,0.6-0.2,1.1-0.7,1.6c-0.5,0.4-1,0.7-1.7,0.7c-0.7,0-1.3-0.2-1.7-0.7
		c-0.5-0.4-0.7-1-0.7-1.6v-12.5c0-0.6,0.2-1.2,0.7-1.6c0.5-0.4,1-0.6,1.7-0.6c0.7,0,1.2,0.2,1.5,0.5c0.4,0.3,0.6,0.7,0.7,1.2h0.4
		c0.3-0.5,0.8-1,1.6-1.4s1.6-0.6,2.5-0.6C166.2,111.1,167.2,111.4,168.1,111.9z"/>
	<path class="st15" d="M189.4,105.4c0.5,0.4,0.7,1,0.7,1.6v19.1c0,0.6-0.2,1.1-0.7,1.6c-0.5,0.4-1,0.7-1.7,0.7c-0.5,0-1-0.2-1.5-0.5
		c-0.4-0.3-0.7-0.7-0.8-1.2H185c-0.4,0.6-0.9,1.1-1.7,1.5c-0.7,0.4-1.5,0.6-2.4,0.6c-1.1,0-2.2-0.3-3.2-0.9c-1-0.6-1.8-1.5-2.4-2.6
		c-0.6-1.1-0.9-2.3-0.9-3.6v-3.5c0-1.3,0.3-2.5,0.9-3.6c0.6-1.1,1.4-1.9,2.4-2.6c1-0.6,2.1-0.9,3.2-0.9c0.8,0,1.6,0.2,2.3,0.5
		c0.7,0.3,1.3,0.7,1.7,1.3h0.4V107c0-0.6,0.2-1.1,0.7-1.6c0.5-0.4,1-0.7,1.7-0.7C188.3,104.8,188.9,105,189.4,105.4z M185.3,118.2
		c0-0.9-0.3-1.6-0.9-2.2c-0.6-0.6-1.3-0.9-2.1-0.9s-1.5,0.3-2.1,0.9c-0.6,0.6-0.9,1.3-0.9,2.2v3.5c0,0.9,0.3,1.6,0.9,2.2
		c0.6,0.6,1.3,0.9,2.1,0.9s1.5-0.3,2.1-0.9c0.6-0.6,0.9-1.3,0.9-2.2V118.2z"/>
	<path class="st15" d="M205.4,112c1.2,0.6,2.1,1.5,2.8,2.6c0.7,1.1,1,2.3,1,3.6v1.1c0,0.6-0.2,1.1-0.7,1.6c-0.5,0.4-1,0.7-1.7,0.7
		h-8.4v0.3c0,0.9,0.3,1.7,0.8,2.3c0.6,0.6,1.3,0.9,2.3,0.9c0.6,0,1.2-0.1,1.7-0.2c0.5-0.1,1-0.4,1.5-0.7c0.4-0.2,0.7-0.4,1-0.5
		c0.3-0.1,0.5-0.1,0.9-0.1c0.5,0,1,0.2,1.3,0.5c0.3,0.4,0.5,0.8,0.5,1.2c0,0.4-0.1,0.7-0.3,1.1c-0.2,0.4-0.6,0.8-1,1.1
		c-0.6,0.4-1.4,0.8-2.4,1c-1,0.3-2.1,0.4-3.3,0.4c-1.5,0-2.9-0.3-4.1-1s-2.1-1.5-2.8-2.6c-0.7-1.1-1-2.3-1-3.5v-3.5
		c0-1.3,0.3-2.5,1-3.6c0.7-1.1,1.6-1.9,2.8-2.6c1.2-0.6,2.5-0.9,4.1-0.9C202.9,111.1,204.2,111.4,205.4,112z M199.2,115.8
		c-0.6,0.6-0.9,1.3-0.9,2.2v0.1h6v0c0-0.9-0.3-1.7-0.8-2.2c-0.5-0.6-1.3-0.9-2.2-0.9C200.5,115,199.8,115.3,199.2,115.8z"/>
	<path class="st15" d="M222.1,111.3c0.6,0,1.1,0.2,1.5,0.6c0.4,0.4,0.6,0.9,0.6,1.5c0,0.6-0.2,1.1-0.6,1.5c-0.4,0.4-0.9,0.6-1.5,0.6
		h-1.8c-0.9,0-1.6,0.3-2.1,0.8s-0.8,1.2-0.8,2v8c0,0.6-0.2,1.1-0.7,1.6c-0.5,0.4-1,0.7-1.7,0.7c-0.7,0-1.3-0.2-1.7-0.7
		c-0.5-0.4-0.7-1-0.7-1.6v-12.5c0-0.6,0.2-1.2,0.7-1.6c0.5-0.4,1-0.6,1.7-0.6c0.6,0,1.1,0.2,1.5,0.5s0.7,0.7,0.8,1.2h0.3
		c0.3-0.5,0.8-0.9,1.4-1.3c0.6-0.4,1.3-0.5,1.9-0.5H222.1z"/>
	<path class="st15" d="M244.1,105.1c2,0,3.7,0.4,5.3,1.2s2.7,1.9,3.6,3.4c0.8,1.4,1.3,3.1,1.3,4.9v4.1c0,1.8-0.4,3.5-1.3,4.9
		c-0.8,1.4-2,2.6-3.6,3.4c-1.5,0.8-3.3,1.2-5.3,1.2h-6.3c-0.7,0-1.4-0.2-1.9-0.7c-0.5-0.5-0.8-1.1-0.8-1.8v-18.1
		c0-0.7,0.3-1.3,0.8-1.8c0.5-0.5,1.1-0.7,1.9-0.7H244.1z M248.8,114.6c0-1.5-0.4-2.6-1.3-3.5c-0.9-0.9-2-1.4-3.4-1.4h-3.6v13.9h3.6
		c1.4,0,2.6-0.5,3.4-1.4c0.9-0.9,1.3-2.1,1.3-3.6V114.6z"/>
	<path class="st15" d="M269.3,112c1.2,0.6,2.1,1.5,2.8,2.6c0.7,1.1,1,2.3,1,3.6v1.1c0,0.6-0.2,1.1-0.7,1.6c-0.5,0.4-1,0.7-1.7,0.7
		h-8.4v0.3c0,0.9,0.3,1.7,0.8,2.3c0.6,0.6,1.3,0.9,2.3,0.9c0.6,0,1.2-0.1,1.7-0.2c0.5-0.1,1-0.4,1.5-0.7c0.4-0.2,0.7-0.4,1-0.5
		c0.3-0.1,0.5-0.1,0.9-0.1c0.5,0,1,0.2,1.3,0.5c0.3,0.4,0.5,0.8,0.5,1.2c0,0.4-0.1,0.7-0.3,1.1c-0.2,0.4-0.6,0.8-1,1.1
		c-0.6,0.4-1.4,0.8-2.4,1c-1,0.3-2.1,0.4-3.3,0.4c-1.5,0-2.9-0.3-4.1-1s-2.1-1.5-2.8-2.6c-0.7-1.1-1-2.3-1-3.5v-3.5
		c0-1.3,0.3-2.5,1-3.6c0.7-1.1,1.6-1.9,2.8-2.6c1.2-0.6,2.5-0.9,4.1-0.9C266.7,111.1,268.1,111.4,269.3,112z M263.1,115.8
		c-0.6,0.6-0.9,1.3-0.9,2.2v0.1h6v0c0-0.9-0.3-1.7-0.8-2.2c-0.5-0.6-1.3-0.9-2.2-0.9C264.4,115,263.7,115.3,263.1,115.8z"/>
	<path class="st15" d="M280.5,128.1c-0.5-0.4-1-1-1.2-1.7l-4.6-11.6c-0.1-0.3-0.2-0.7-0.2-1c0-0.6,0.2-1.2,0.7-1.6
		c0.5-0.4,1-0.7,1.7-0.7c1.2,0,2.1,0.7,2.5,2l3.2,9.3h0.3l3.2-9.3c0.4-1.3,1.2-2,2.5-2c0.7,0,1.3,0.2,1.7,0.7c0.5,0.4,0.7,1,0.7,1.6
		c0,0.3-0.1,0.6-0.2,0.9l-4.6,11.7c-0.3,0.7-0.7,1.3-1.3,1.7c-0.5,0.4-1.3,0.6-2.2,0.6C281.8,128.7,281.1,128.5,280.5,128.1z"/>
	<path class="st15" d="M304.6,112c1.2,0.6,2.1,1.5,2.8,2.6c0.7,1.1,1,2.3,1,3.6v1.1c0,0.6-0.2,1.1-0.7,1.6c-0.5,0.4-1,0.7-1.7,0.7
		h-8.4v0.3c0,0.9,0.3,1.7,0.8,2.3c0.6,0.6,1.3,0.9,2.3,0.9c0.6,0,1.2-0.1,1.7-0.2c0.5-0.1,1-0.4,1.5-0.7c0.4-0.2,0.7-0.4,1-0.5
		c0.3-0.1,0.5-0.1,0.9-0.1c0.5,0,1,0.2,1.3,0.5c0.3,0.4,0.5,0.8,0.5,1.2c0,0.4-0.1,0.7-0.3,1.1c-0.2,0.4-0.6,0.8-1,1.1
		c-0.6,0.4-1.4,0.8-2.4,1c-1,0.3-2.1,0.4-3.3,0.4c-1.5,0-2.9-0.3-4.1-1s-2.1-1.5-2.8-2.6c-0.7-1.1-1-2.3-1-3.5v-3.5
		c0-1.3,0.3-2.5,1-3.6c0.7-1.1,1.6-1.9,2.8-2.6c1.2-0.6,2.5-0.9,4.1-0.9C302.1,111.1,303.4,111.4,304.6,112z M298.4,115.8
		c-0.6,0.6-0.9,1.3-0.9,2.2v0.1h6v0c0-0.9-0.3-1.7-0.8-2.2c-0.5-0.6-1.3-0.9-2.2-0.9C299.7,115,299,115.3,298.4,115.8z"/>
	<path class="st15" d="M312.3,127.7c-0.5-0.4-0.7-1-0.7-1.6V107c0-0.6,0.2-1.1,0.7-1.6c0.5-0.4,1-0.7,1.7-0.7c0.7,0,1.3,0.2,1.7,0.7
		c0.5,0.4,0.7,1,0.7,1.6v19.1c0,0.6-0.2,1.1-0.7,1.6c-0.5,0.4-1,0.7-1.7,0.7C313.4,128.4,312.8,128.2,312.3,127.7z"/>
	<path class="st15" d="M323.8,127.8c-1.2-0.6-2.1-1.5-2.8-2.6c-0.7-1.1-1-2.3-1-3.5v-3.5c0-1.3,0.3-2.5,1-3.6
		c0.7-1.1,1.6-1.9,2.8-2.6s2.6-0.9,4.1-0.9c1.5,0,2.9,0.3,4.1,0.9c1.2,0.6,2.1,1.5,2.8,2.6c0.7,1.1,1,2.3,1,3.6v3.5
		c0,1.3-0.3,2.5-1,3.5c-0.7,1.1-1.6,1.9-2.8,2.6c-1.2,0.6-2.6,1-4.1,1C326.3,128.7,325,128.4,323.8,127.8z M330.1,123.8
		c0.6-0.6,0.9-1.3,0.9-2.2v-3.5c0-0.9-0.3-1.6-0.9-2.2c-0.6-0.6-1.3-0.9-2.2-0.9c-0.9,0-1.6,0.3-2.2,0.9c-0.6,0.6-0.9,1.3-0.9,2.2
		v3.5c0,0.9,0.3,1.6,0.9,2.2c0.6,0.6,1.3,0.9,2.2,0.9C328.8,124.7,329.5,124.4,330.1,123.8z"/>
	<path class="st15" d="M351.5,112c1,0.6,1.8,1.5,2.4,2.6c0.6,1.1,0.9,2.3,0.9,3.6v3.5c0,1.3-0.3,2.5-0.9,3.6
		c-0.6,1.1-1.4,1.9-2.4,2.6c-1,0.6-2.1,0.9-3.2,0.9c-0.9,0-1.8-0.2-2.5-0.5c-0.7-0.4-1.2-0.8-1.5-1.2H344v6.3c0,0.6-0.2,1.1-0.7,1.6
		c-0.5,0.4-1,0.7-1.7,0.7c-0.7,0-1.3-0.2-1.7-0.7c-0.5-0.4-0.7-1-0.7-1.6v-19.6c0-0.6,0.2-1.2,0.7-1.6c0.4-0.4,1-0.6,1.7-0.6
		c0.6,0,1.1,0.2,1.5,0.5s0.7,0.7,0.8,1.2h0.3c0.3-0.5,0.8-1,1.6-1.4c0.7-0.4,1.5-0.6,2.5-0.6C349.4,111.1,350.5,111.4,351.5,112z
		 M350,118.2c0-0.9-0.3-1.6-0.9-2.2c-0.6-0.6-1.3-0.9-2.1-0.9c-0.8,0-1.5,0.3-2.1,0.9c-0.6,0.6-0.9,1.3-0.9,2.2v3.5
		c0,0.9,0.3,1.6,0.9,2.2c0.6,0.6,1.3,0.9,2.1,0.9c0.8,0,1.5-0.3,2.1-0.9c0.6-0.6,0.9-1.3,0.9-2.2V118.2z"/>
	<path class="st15" d="M379.7,111.9c0.9,0.6,1.6,1.3,2.2,2.3c0.5,1,0.8,2.1,0.8,3.3v8.5c0,0.6-0.2,1.1-0.7,1.6
		c-0.5,0.4-1,0.7-1.7,0.7c-0.7,0-1.3-0.2-1.7-0.7c-0.5-0.4-0.7-1-0.7-1.6v-8.5c0-0.8-0.2-1.4-0.7-1.9c-0.5-0.5-1.1-0.7-1.8-0.7
		c-0.7,0-1.3,0.2-1.8,0.7c-0.4,0.5-0.7,1.1-0.7,1.9v8.5c0,0.6-0.2,1.1-0.7,1.6c-0.5,0.4-1,0.7-1.7,0.7c-0.7,0-1.3-0.2-1.7-0.7
		c-0.5-0.4-0.7-1-0.7-1.6v-8.5c0-0.8-0.2-1.4-0.7-1.9s-1.1-0.7-1.8-0.7c-0.8,0-1.4,0.2-1.8,0.7c-0.4,0.5-0.7,1.1-0.7,2v8.4
		c0,0.6-0.2,1.1-0.7,1.6c-0.5,0.4-1,0.7-1.7,0.7c-0.7,0-1.3-0.2-1.7-0.7c-0.5-0.4-0.7-1-0.7-1.6v-12.5c0-0.6,0.2-1.2,0.7-1.6
		c0.5-0.4,1-0.6,1.7-0.6c0.6,0,1.1,0.2,1.5,0.5s0.6,0.7,0.8,1.2h0.4c0.4-0.6,0.9-1.1,1.6-1.5c0.7-0.4,1.4-0.5,2.3-0.5
		c0.9,0,1.7,0.2,2.5,0.6c0.8,0.4,1.4,0.9,1.9,1.7h0.3c0.5-0.7,1.2-1.3,2-1.7c0.8-0.4,1.7-0.6,2.7-0.6
		C377.7,111.1,378.8,111.4,379.7,111.9z"/>
	<path class="st15" d="M397.9,112c1.2,0.6,2.1,1.5,2.8,2.6c0.7,1.1,1,2.3,1,3.6v1.1c0,0.6-0.2,1.1-0.7,1.6c-0.5,0.4-1,0.7-1.7,0.7
		h-8.4v0.3c0,0.9,0.3,1.7,0.8,2.3c0.6,0.6,1.3,0.9,2.3,0.9c0.6,0,1.2-0.1,1.7-0.2c0.5-0.1,1-0.4,1.5-0.7c0.4-0.2,0.7-0.4,1-0.5
		c0.3-0.1,0.5-0.1,0.9-0.1c0.5,0,1,0.2,1.3,0.5c0.3,0.4,0.5,0.8,0.5,1.2c0,0.4-0.1,0.7-0.3,1.1c-0.2,0.4-0.6,0.8-1,1.1
		c-0.6,0.4-1.4,0.8-2.4,1c-1,0.3-2.1,0.4-3.3,0.4c-1.5,0-2.9-0.3-4.1-1s-2.1-1.5-2.8-2.6c-0.7-1.1-1-2.3-1-3.5v-3.5
		c0-1.3,0.3-2.5,1-3.6c0.7-1.1,1.6-1.9,2.8-2.6c1.2-0.6,2.5-0.9,4.1-0.9C395.3,111.1,396.7,111.4,397.9,112z M391.7,115.8
		c-0.6,0.6-0.9,1.3-0.9,2.2v0.1h6v0c0-0.9-0.3-1.7-0.8-2.2c-0.5-0.6-1.3-0.9-2.2-0.9C393,115,392.2,115.3,391.7,115.8z"/>
	<path class="st15" d="M417.2,111.9c0.9,0.6,1.7,1.4,2.2,2.4c0.5,1,0.8,2.2,0.8,3.6v8.2c0,0.6-0.2,1.1-0.7,1.6
		c-0.5,0.4-1,0.7-1.7,0.7c-0.7,0-1.3-0.2-1.7-0.7c-0.5-0.4-0.7-1-0.7-1.6V118c0-0.9-0.3-1.6-0.8-2.1c-0.5-0.5-1.2-0.8-2-0.8
		s-1.5,0.3-2,0.8s-0.8,1.2-0.8,2.1v8.2c0,0.6-0.2,1.1-0.7,1.6c-0.5,0.4-1,0.7-1.7,0.7c-0.7,0-1.3-0.2-1.7-0.7
		c-0.5-0.4-0.7-1-0.7-1.6v-12.5c0-0.6,0.2-1.2,0.7-1.6c0.5-0.4,1-0.6,1.7-0.6c0.7,0,1.2,0.2,1.5,0.5c0.4,0.3,0.6,0.7,0.7,1.2h0.4
		c0.3-0.5,0.8-1,1.6-1.4s1.6-0.6,2.5-0.6C415.2,111.1,416.2,111.4,417.2,111.9z"/>
	<path class="st15" d="M433.6,124.2c0.6,0,1.1,0.2,1.5,0.6c0.4,0.4,0.6,0.9,0.6,1.5c0,0.6-0.2,1.1-0.6,1.5c-0.4,0.4-0.9,0.6-1.5,0.6
		h-2.7c-1.2,0-2.2-0.3-3.2-0.8c-0.9-0.5-1.7-1.2-2.2-2.1c-0.5-0.9-0.8-1.9-0.8-3v-6.7h-0.3c-0.6,0-1.1-0.2-1.6-0.5
		c-0.4-0.4-0.7-0.9-0.7-1.5c0-0.6,0.2-1.1,0.7-1.5c0.4-0.4,1-0.5,1.6-0.5h0.3v-1.9c0-0.6,0.2-1.1,0.7-1.6c0.5-0.4,1-0.7,1.7-0.7
		c0.7,0,1.3,0.2,1.7,0.7c0.5,0.4,0.7,1,0.7,1.6v1.9h3.3c0.6,0,1.1,0.2,1.6,0.6s0.6,0.9,0.6,1.5c0,0.6-0.2,1.1-0.6,1.4
		c-0.4,0.4-0.9,0.6-1.6,0.6h-3.3v6.7c0,0.6,0.1,1.1,0.4,1.4c0.3,0.3,0.7,0.5,1.2,0.5H433.6z"/>
	<path class="st15" d="M447.6,120.3c-0.4-0.4-0.7-1-0.7-1.7l-0.6-11.2c0-0.8,0.2-1.5,0.8-2s1.3-0.8,2.1-0.8c0.9,0,1.6,0.3,2.1,0.8
		c0.5,0.6,0.8,1.2,0.7,2l-0.6,11.2c0,0.7-0.3,1.3-0.7,1.7c-0.4,0.4-1,0.7-1.6,0.7C448.5,120.9,448,120.7,447.6,120.3z M447.2,127.8
		c-0.5-0.5-0.8-1.2-0.8-1.9c0-0.8,0.3-1.4,0.8-2c0.5-0.5,1.2-0.8,2-0.8c0.8,0,1.5,0.3,2,0.8c0.5,0.5,0.8,1.2,0.8,2s-0.3,1.4-0.8,2
		c-0.5,0.5-1.2,0.8-2,0.8C448.4,128.5,447.7,128.3,447.2,127.8z"/>
</g>
</svg>
