<?xml version="1.0" encoding="utf-8"?>
<!-- Generator: Adobe Illustrator 27.3.1, SVG Export Plug-In . SVG Version: 6.00 Build 0)  -->
<svg version="1.1" id="Layer_1" xmlns="http://www.w3.org/2000/svg" xmlns:xlink="http://www.w3.org/1999/xlink" x="0px" y="0px"
	 viewBox="0 0 500 500" style="enable-background:new 0 0 500 500;" xml:space="preserve">
<style type="text/css">
	.st0{fill:#0666DB;}
	.st1{opacity:0.9;fill:#FFFFFF;enable-background:new    ;}
	.st2{fill:#F5F5F5;}
	.st3{opacity:0.3;fill:#FFFFFF;enable-background:new    ;}
	.st4{fill:#263238;}
	.st5{fill:#FFFFFF;}
	.st6{opacity:0.4;fill:#0666DB;enable-background:new    ;}
	.st7{fill:#EBEBEB;}
	.st8{opacity:0.1;fill:#0666DB;enable-background:new    ;}
	.st9{opacity:0.4;fill:#FFFFFF;enable-background:new    ;}
	.st10{opacity:0.3;enable-background:new    ;}
	.st11{opacity:0.6;fill:#0666DB;enable-background:new    ;}
	.st12{fill:#FF5652;}
	.st13{fill:#FF8B7B;}
	.st14{opacity:0.2;enable-background:new    ;}
	.st15{opacity:0.2;}
	.st16{opacity:0.5;fill:#FFFFFF;enable-background:new    ;}
	.st17{opacity:0.7;fill:#FFFFFF;enable-background:new    ;}
</style>
<g id="background-simple--inject-2">
	<path class="st0" d="M282.9,296.6c-42.3,0.6-104.8,32.9-130.8-7.7c-21.8-34.1,3.4-67.5-37-92.6c-29.4-18.4-77.1-50.5-32.8-83.9
		C117,86.3,171.2,79.1,213.2,85c33,4.7,101.5,24.3,109.8,58.9c9.3,38.9-51.1,71,13.5,85.7c38.9,8.8,85.8,31.4,58.3,77.9
		c-10.8,18.4-26.3,15.2-42.6,7.9C328,304.7,312,296.2,282.9,296.6z"/>
	<path class="st1" d="M282.9,296.6c-42.3,0.6-104.8,32.9-130.8-7.7c-21.8-34.1,3.4-67.5-37-92.6c-29.4-18.4-77.1-50.5-32.8-83.9
		C117,86.3,171.2,79.1,213.2,85c33,4.7,101.5,24.3,109.8,58.9c9.3,38.9-51.1,71,13.5,85.7c38.9,8.8,85.8,31.4,58.3,77.9
		c-10.8,18.4-26.3,15.2-42.6,7.9C328,304.7,312,296.2,282.9,296.6z"/>
</g>
<g id="Shadow--inject-2">
	<ellipse id="path--inject-2" class="st2" cx="250" cy="416.2" rx="193.9" ry="11.3"/>
</g>
<g id="Desk--inject-2">
	<rect x="79.5" y="251.1" class="st0" width="339.8" height="12.2"/>
	<rect x="79.5" y="251.1" class="st3" width="90.9" height="12.2"/>
	<polygon class="st0" points="171.9,263.3 164,263.3 168.1,416.1 171.9,416.1 175.7,416.1 179.8,263.3 	"/>
	<polygon class="st3" points="168.1,416.1 171.9,416.1 171.9,266.6 164.1,268 	"/>
	<polygon class="st0" points="96.9,263.3 89,263.3 93.2,416.1 96.9,416.1 100.7,416.1 104.8,263.3 	"/>
	<polygon class="st3" points="93.2,416.1 96.9,416.1 96.9,266.6 89.1,268 	"/>
	<polygon class="st0" points="401.9,263.3 393.9,263.3 398.1,416.1 401.9,416.1 405.6,416.1 409.8,263.3 	"/>
	<polygon class="st3" points="398.1,416.1 401.9,416.1 401.9,266.6 394.1,268 	"/>
	<polygon class="st0" points="326.9,263.3 319,263.3 323.1,416.1 326.9,416.1 330.6,416.1 334.8,263.3 	"/>
	<polygon class="st3" points="323.1,416.1 326.9,416.1 326.9,266.6 319.1,268 	"/>
	<path class="st4" d="M240.8,185.8H160c-2.3-0.1-4.2,1.7-4.3,4c0,0.4,0,0.9,0.2,1.3l10.8,51.3c0.7,3,3.3,5.1,6.4,5.3h80.8
		c2.3,0.1,4.2-1.7,4.3-4c0-0.4,0-0.9-0.1-1.3l-10.8-51.4C246.5,188.1,243.9,185.9,240.8,185.8z"/>
	<path class="st5" d="M173.7,244.8c-2.1-0.1-3.8-1.6-4.3-3.6l-10.8-51.3c-0.2-0.7-0.1-1.4,0.4-2c0.4-0.5,1.1-0.8,1.7-0.7h80.8
		c2.1,0.1,3.8,1.6,4.3,3.6l10.8,51.3c0.2,0.7,0.1,1.4-0.4,2c-0.4,0.5-1.1,0.8-1.7,0.7H173.7z"/>
	<path class="st6" d="M234.7,240.7L224.5,192c-0.2-1.1,0.5-2.1,1.6-2.4c0.1,0,0.2,0,0.4,0h13.1c0.9,0,1.7,0.7,1.9,1.6l10.2,48.6
		c0.2,1.1-0.5,2.1-1.6,2.4c-0.1,0-0.2,0-0.4,0h-13.1C235.7,242.2,234.9,241.6,234.7,240.7z"/>
	<polygon class="st0" points="165.3,193.9 164.9,191.8 181.1,191.8 181.5,193.9 	"/>
	<polygon class="st7" points="172.8,199.1 172.4,197 200.8,197 201.2,199.1 	"/>
	<polygon class="st7" points="174.3,204.3 173.9,202.2 205.7,202.2 206.1,204.3 	"/>
	<polygon class="st7" points="175.8,209.6 175.4,207.5 201,207.5 201.4,209.6 	"/>
	<polygon class="st0" points="170.2,218.1 169.8,216 180.1,216 180.5,218.1 	"/>
	<polygon class="st7" points="177.7,223.3 177.3,221.2 189.8,221.2 190.2,223.3 	"/>
	<polygon class="st7" points="193.2,223.3 192.8,221.2 205.2,221.2 205.7,223.3 	"/>
	<polygon class="st7" points="179.2,228.5 178.8,226.4 221,226.4 221.4,228.5 	"/>
	<polygon class="st7" points="180.7,233.8 180.3,231.7 212.4,231.7 212.9,233.8 	"/>
	<path class="st4" d="M278.5,247.4H172.2c-2.9,0-4.8,1.6-4.2,3.7h116.9C284.3,249.1,281.4,247.4,278.5,247.4z"/>
	<path class="st8" d="M137.2,172.9L127,124.2c-0.2-1.1,0.5-2.1,1.6-2.3c0.1,0,0.2,0,0.4,0h82.6c0.9,0,1.7,0.7,1.9,1.6l10.2,48.6
		c0.2,1.1-0.5,2.1-1.6,2.4c-0.1,0-0.2,0-0.4,0h-82.6C138.2,174.4,137.4,173.8,137.2,172.9z"/>
	<polygon class="st0" points="166.6,123.4 149.2,123.4 148.8,121.5 166.2,121.5 	"/>
	<polygon class="st6" points="163.8,126.4 156.8,126.4 156.4,124.5 163.4,124.5 	"/>
	<polygon class="st6" points="175.3,126.4 164.6,126.4 164.2,124.5 174.9,124.5 	"/>
	<polygon class="st6" points="180,129.4 157.4,129.4 157,127.5 179.6,127.5 	"/>
	<polygon class="st6" points="177.1,132.3 158,132.3 157.6,130.5 176.7,130.5 	"/>
	<polygon class="st6" points="189.8,163.9 177.6,163.9 178,165.8 190.2,165.8 	"/>
	<polygon class="st0" points="174.6,159.9 156.8,159.9 156.4,158 174.2,158 	"/>
	<polygon class="st6" points="181.8,166.9 165.2,166.9 165.6,168.8 182.2,168.8 	"/>
	<polygon class="st6" points="176.8,163.9 164.6,163.9 165,165.8 177.2,165.8 	"/>
	<polygon class="st6" points="188.3,161 164,161 164.4,162.8 188.7,162.8 	"/>
	<polygon class="st0" points="166,109.5 146.3,109.5 145.9,107.7 165.6,107.7 	"/>
	<polygon class="st6" points="175.6,116.6 154,116.6 154.4,118.5 176,118.5 	"/>
	<polygon class="st6" points="171.3,113.6 153.4,113.6 153.8,115.5 171.7,115.5 	"/>
	<polygon class="st6" points="172.5,110.6 152.8,110.6 153.2,112.5 172.9,112.5 	"/>
	<polygon class="st0" points="165.7,137.2 152.1,137.2 151.7,135.3 165.4,135.3 	"/>
	<polygon class="st6" points="187.2,144.2 160.5,144.2 160.9,146.1 187.5,146.1 	"/>
	<polygon class="st6" points="170.9,141.3 159.9,141.3 160.3,143.1 171.3,143.1 	"/>
	<polygon class="st6" points="182.9,141.3 171.9,141.3 172.3,143.1 183.3,143.1 	"/>
	<polygon class="st6" points="183.6,138.3 159.3,138.3 159.7,140.1 184,140.1 	"/>
	<polygon class="st6" points="183.5,153.2 162.4,153.2 162.8,155 183.9,155 	"/>
	<polygon class="st6" points="167.9,150.2 161.8,150.2 162.1,152.1 168.3,152.1 	"/>
	<polygon class="st6" points="177.5,150.2 168.8,150.2 169.1,152.1 177.9,152.1 	"/>
	<polygon class="st6" points="185.4,147.2 161.1,147.2 161.5,149.1 185.8,149.1 	"/>
	<polygon class="st6" points="204.6,146.7 195.9,146.7 195.5,144.8 204.2,144.8 	"/>
	<polygon class="st6" points="219.1,146.7 205.7,146.7 205.3,144.8 218.7,144.8 	"/>
	<polygon class="st6" points="224.8,149.7 196.5,149.7 196.1,147.8 224.4,147.8 	"/>
	<polygon class="st6" points="221,152.7 197.1,152.7 196.7,150.8 220.6,150.8 	"/>
	<polygon class="st6" points="231.8,134.9 204.7,134.9 205.1,136.7 232.1,136.7 	"/>
	<polygon class="st6" points="226.5,131.9 204,131.9 204.4,133.8 226.9,133.8 	"/>
	<polygon class="st0" points="222.4,128.9 197.7,128.9 198.1,130.8 222.8,130.8 	"/>
	<polygon class="st6" points="233,164.6 199.6,164.6 200,166.4 233.4,166.4 	"/>
	<polygon class="st6" points="212.8,161.6 199,161.6 199.4,163.4 213.2,163.4 	"/>
	<polygon class="st6" points="227.8,161.6 214,161.6 214.4,163.4 228.2,163.4 	"/>
	<polygon class="st6" points="228.8,158.6 198.4,158.6 198.8,160.5 229.2,160.5 	"/>
	<polygon class="st6" points="228,173.5 201.5,173.5 201.9,175.4 228.4,175.4 	"/>
	<polygon class="st6" points="208.6,170.5 200.9,170.5 201.2,172.4 208.9,172.4 	"/>
	<polygon class="st6" points="220.6,170.5 209.6,170.5 210,172.4 221,172.4 	"/>
	<polygon class="st6" points="230.7,167.5 200.2,167.5 200.6,169.4 231.1,169.4 	"/>
	<polygon class="st6" points="149.6,175.8 128.9,175.8 129.2,177.7 150,177.7 	"/>
	<polygon class="st6" points="143.5,172.8 128.2,172.8 128.6,174.7 143.9,174.7 	"/>
	<polygon class="st6" points="159.8,172.8 144.5,172.8 144.9,174.7 160.2,174.7 	"/>
	<polygon class="st6" points="158.1,169.8 127.6,169.8 128,171.7 158.4,171.7 	"/>
	<polygon class="st0" points="391,231.7 378.1,231.7 379.6,251.1 389.5,251.1 	"/>
	<polygon class="st9" points="391,231.7 378.1,231.7 379.6,251.1 389.5,251.1 	"/>
	<polygon class="st4" points="111.1,218.2 129.6,218.2 123.3,251.1 104.8,251.1 	"/>
	<polygon class="st0" points="134.6,209.4 108.6,209.4 115.9,251.1 141.9,251.1 	"/>
	<polygon class="st0" points="107,209.4 108.6,209.4 115.9,251.1 114.3,251.1 	"/>
	<polygon class="st10" points="107,209.4 108.6,209.4 115.9,251.1 114.3,251.1 	"/>
	<polygon class="st5" points="119.6,246.6 113.9,213.8 130.9,213.8 136.6,246.6 	"/>
	<polygon class="st11" points="135.8,246.6 130.1,213.8 130.9,213.8 136.6,246.6 	"/>
</g>
<g id="Character--inject-2">
	<path class="st4" d="M263.8,156c0.4,0.8,0.2,1.6-0.3,1.9s-1.2-0.2-1.6-1s-0.2-1.6,0.3-1.9S263.4,155.2,263.8,156z"/>
	<path class="st12" d="M264.1,157.6c0,0,0.3,5.5-0.7,8.6c2,0.7,4.2-1,4.2-1L264.1,157.6z"/>
	<path class="st4" d="M263.9,149.4c-0.1,0.1-0.2,0.1-0.3,0.1c-1.3,0-2.5,0.7-3.3,1.8c-0.1,0.3-0.5,0.3-0.7,0.2
		c-0.3-0.1-0.3-0.5-0.2-0.7c0,0,0,0,0,0c0.9-1.4,2.5-2.3,4.1-2.3c0.3,0,0.5,0.2,0.5,0.5C264.1,149.1,264,149.3,263.9,149.4
		L263.9,149.4z"/>
	<path class="st13" d="M293.2,154.8c3.1,10.7,6.5,19,10.8,23.7c0,0,0.1,8.4-14.2,12.4c-15.8,4.4-9.7-5.7-9.7-5.7
		c8-4.4,7.2-11.2,1.2-13.7L293.2,154.8z"/>
	<path class="st4" d="M307.3,176.4c-0.3-3.9-0.6-8.4-3.1-8.5c-2.7-0.1-18.1,6.8-21.4,11.6s3.1,9.6,3.1,9.6L307.3,176.4z"/>
	<path class="st13" d="M275.8,237l-13.3-0.4l0.2,11.1c0,0,11.6-1.2,12.1-4.2L275.8,237z"/>
	<polygon class="st13" points="255.5,242 254.1,247.7 262.7,247.7 262.5,236.6 	"/>
	<path class="st0" d="M329.2,190.7l-0.3,2.9c-0.1,0.9-0.2,1.8-0.3,2.7c-0.2,1.8-0.5,3.6-0.8,5.4c-0.6,3.6-1.4,7.2-2.3,10.8
		c-0.9,3.7-2,7.3-3.3,10.9c-0.7,1.8-1.4,3.7-2.3,5.5c-0.9,2-1.9,3.8-3,5.6c-0.3,0.5-0.6,1-0.9,1.4s-0.6,1-1,1.5s-0.7,1-1.2,1.5
		l-0.6,0.7c-0.2,0.3-0.5,0.5-0.7,0.8c-2,2-4.4,3.5-6.9,4.6c-4,1.7-8.1,2.8-12.4,3.1c-2,0.2-3.9,0.3-5.8,0.4s-3.8,0-5.6-0.1
		s-3.7-0.3-5.5-0.5s-3.6-0.5-5.5-0.9l0.3-10.4c6.4-1.1,12.7-2.6,18.9-4.5c1.4-0.4,2.7-1,4.1-1.6c1.1-0.5,2.2-1.1,3.2-1.8
		c0.6-0.4,1.1-0.8,1.5-1.4l0.3-0.5c0.1-0.2,0.3-0.4,0.4-0.6c0.1-0.2,0.3-0.5,0.4-0.7c0.1-0.3,0.3-0.5,0.4-0.8
		c1.2-2.6,2.1-5.2,2.9-7.9c0.8-2.9,1.6-6,2.2-9.2s1.2-6.4,1.8-9.6l0.8-4.9l0.7-4.7L329.2,190.7z"/>
	<path class="st14" d="M329.2,190.7l-0.3,2.9c-0.1,0.9-0.2,1.8-0.3,2.7c-0.2,1.8-0.5,3.6-0.8,5.4c-0.6,3.6-1.4,7.2-2.3,10.8
		c-0.9,3.7-2,7.3-3.3,10.9c-0.7,1.8-1.4,3.7-2.3,5.5c-0.9,2-1.9,3.8-3,5.6c-0.3,0.5-0.6,1-0.9,1.4s-0.6,1-1,1.5s-0.7,1-1.2,1.5
		l-0.6,0.7c-0.2,0.3-0.5,0.5-0.7,0.8c-2,2-4.4,3.5-6.9,4.6c-4,1.7-8.1,2.8-12.4,3.1c-2,0.2-3.9,0.3-5.8,0.4s-3.8,0-5.6-0.1
		s-3.7-0.3-5.5-0.5s-3.6-0.5-5.5-0.9l0.3-10.4c6.4-1.1,12.7-2.6,18.9-4.5c1.4-0.4,2.7-1,4.1-1.6c1.1-0.5,2.2-1.1,3.2-1.8
		c0.6-0.4,1.1-0.8,1.5-1.4l0.3-0.5c0.1-0.2,0.3-0.4,0.4-0.6c0.1-0.2,0.3-0.5,0.4-0.7c0.1-0.3,0.3-0.5,0.4-0.8
		c1.2-2.6,2.1-5.2,2.9-7.9c0.8-2.9,1.6-6,2.2-9.2s1.2-6.4,1.8-9.6l0.8-4.9l0.7-4.7L329.2,190.7z"/>
	<path class="st0" d="M270.1,204c5,21.4,7.7,43.2,8.3,65.1H337c0.3-7.2-0.9-48-6.8-77.4c-2.2-11.1-12.9-18.3-23.9-16.1
		c-0.2,0-0.3,0.1-0.5,0.1l-0.3,0.1c-7.3,1.7-17.8,4.3-24,6.7l-0.2,0.1C272.7,185.9,267.9,195.1,270.1,204z"/>
	<path class="st14" d="M273.9,222.7c0.5,2.8,0.9,5.8,1.4,8.9c4.8-5,6.3-20.3,6.3-20.3L273.9,222.7z"/>
	<path class="st13" d="M225.3,237.7l-13.3-1.2l-0.4,11.1c4.5,1.2,9.3-0.1,12.4-3.5L225.3,237.7z"/>
	<polygon class="st13" points="205.7,239.8 201.4,247.4 211.6,247.6 212,236.5 	"/>
	<path class="st0" d="M292.1,198.9c-0.9,1.8-1.7,3.3-2.7,4.9s-1.8,3.2-2.8,4.7c-1.9,3.1-3.8,6.2-5.9,9.2
		c-4.1,6.2-8.7,12.1-13.7,17.6c-2.7,3-5.6,5.7-8.7,8.3c-0.4,0.3-0.9,0.6-1.3,1s-0.8,0.6-1.4,1s-1.2,0.7-1.8,1.1s-1.2,0.6-1.8,0.9
		c-2.2,1-4.5,1.7-6.9,2.1c-4.1,0.7-8.4,0.8-12.5,0.3c-2-0.2-3.9-0.6-5.8-1c-1-0.2-1.9-0.5-2.8-0.8c-1-0.3-1.8-0.6-2.9-1l1.6-10.3
		c6.3-0.9,13.1-1.9,17.8-4.1c1-0.4,2-1,2.9-1.7c0.4-0.2,0.7-0.5,1-0.8c0.1-0.1,0.4-0.4,0.6-0.6s0.5-0.4,0.8-0.7
		c2.1-2.1,4.1-4.4,6-6.8c4-5.2,7.8-10.6,11.3-16.2c1.8-2.8,3.5-5.7,5.3-8.6l2.6-4.3l2.5-4.3L292.1,198.9z"/>
	<polygon class="st13" points="276,407.6 265.1,407.6 259.6,382.2 270.5,382.2 	"/>
	<path class="st4" d="M264.5,405.3h12.3c0.4,0,0.8,0.3,0.9,0.7l2.2,9.7c0.2,0.9-0.4,1.7-1.2,1.9c-0.1,0-0.3,0-0.4,0
		c-4.3-0.1-6.4-0.3-11.8-0.3c-3.3,0-7.6,0.3-12.2,0.3s-5.2-4.5-3.3-5c8.4-1.9,9-4.4,11.7-6.8C263.2,405.5,263.8,405.3,264.5,405.3z"
		/>
	<g class="st15">
		<polygon points="270.5,382.3 259.6,382.3 262.6,396.3 273.4,395.3 		"/>
	</g>
	<path class="st13" d="M289.7,141.9c4,10.1,6.8,15.9,4.1,23.2c-4,11.1-18.2,12.2-25.1,3.4c-6.2-7.9-11.6-23.1-3.8-31.5
		c5.6-6,14.9-6.4,20.9-0.8C287.6,137.8,288.9,139.7,289.7,141.9z"/>
	<path class="st4" d="M270.5,157.1c-1.6,2.2-2.9,3.9-2.9,3.9s-3.4-8.4-2.1-12.2c-1.6-3.2-5,1.5-6.2-4.8s4.2-13.1,6.2-14.5
		c0.2,0.7,0.3,1.5,0.3,2.3c5.5-4.5,12.5-6.7,19.6-6.2c-0.6,0.9-1,1.9-1.1,2.9c0,0,11.9,2,14.6,8.7c-1-0.5-2-0.8-3-1
		c2.2,3.1,3,7,2.4,10.7c-0.9,5.5-1.3,11-1.3,16.5c0.1,2.8-7.7,8.3-12.4,2.5S270.5,157.1,270.5,157.1z"/>
	<path class="st13" d="M275.4,154.9c0.6,2.4,0.4,4.9-0.5,7.1c-1.3,3-3.9,2.3-5.2-0.3c-1.2-2.4-1.9-6.7,0.1-8.8
		S274.7,152.1,275.4,154.9z"/>
	<path class="st0" d="M296,269.1c0,0-50.8,18.4-52.3,42.8c-2.8,44.9,15.6,80.5,15.6,80.5l16.8-1.8c0,0-3-14.5-5.2-55.2
		c-2.8-51.1,84,1.2,66.1-66.4H296z"/>
	<path class="st16" d="M296,269.1c0,0-50.8,18.4-52.3,42.8c-2.8,44.9,15.6,80.5,15.6,80.5l16.8-1.8c0,0-3-14.5-5.2-55.2
		c-2.8-51.1,84,1.2,66.1-66.4H296z"/>
	<path class="st0" d="M254.6,386.2c-0.1,0,2.7,7.5,2.7,7.5l21-2.1l-1-6.8L254.6,386.2z"/>
	<polygon class="st13" points="228.7,408.9 217.8,408.9 214.6,383.5 225.5,383.5 	"/>
	<path class="st4" d="M217.7,405.2h12c0.4,0,0.8,0.3,0.9,0.7l2.2,9.7c0.2,0.8-0.3,1.7-1.1,1.9c-0.1,0-0.3,0.1-0.4,0.1
		c-4.3-0.1-10.6-0.3-16-0.3c-6.3,0-7.6,0.4-15,0.4c-4.5,0-5.8-4.5-3.9-5c8.6-1.9,11.3-2.1,18.7-6.7
		C215.8,405.6,216.8,405.3,217.7,405.2z"/>
	<polygon class="st14" points="214.6,383.5 216.3,397.3 227.2,396.6 225.5,383.5 	"/>
	<path class="st0" d="M278.5,269.1c0,0-83.3,7.4-82.4,49.2c0.9,43.5,17.2,72.9,17.2,72.9h16.3c0,0-3.1-22.6-2.5-65.4
		c0.2-12.8,26.1-17.1,51.4-18.6c21.9-1.3,42.4-13.8,50.9-34l1.8-4.1H278.5z"/>
	<path class="st16" d="M278.5,269.1c0,0-83.3,7.4-82.4,49.2c0.9,43.5,17.2,72.9,17.2,72.9h16.3c0,0-3.1-22.6-2.5-65.4
		c0.2-12.8,26.1-17.1,51.4-18.6c21.9-1.3,42.4-13.8,50.9-34l1.8-4.1H278.5z"/>
	<path class="st0" d="M209.4,386.8c-0.1,0,2.8,7.5,2.8,7.5l19.6-1.4l-1.1-6.8L209.4,386.8z"/>
	<path class="st4" d="M300.3,222.1l-10.6,40.7c-2.7,10.4-4.1,21.2-4.1,32v18.9c0,4.8,3.5,8.7,7.9,8.7h54.2c4.4,0,7.9-3.9,7.9-8.7
		v-18.9c0-10.8,1.4-21.5,4.1-32l9.3-36c1.4-5.5-2.3-11-7.6-11h-53.6C304.2,215.9,301.1,218.5,300.3,222.1z"/>
	<path class="st4" d="M232.9,302.6l1.8,10.1c0.9,5.3,5.6,9.6,10.4,9.6h60.2c4.8,0,8-4.3,7.1-9.6l-1.8-10.1c-1.1-6-6.4-11-11.9-11
		H241C235.5,291.7,231.9,296.6,232.9,302.6z"/>
	<polygon class="st0" points="311.2,332.5 279.6,332.5 276.5,322.4 314.2,322.4 	"/>
	<rect x="289.8" y="332.5" class="st0" width="11.3" height="75.4"/>
	<polygon class="st17" points="301,407.9 289.8,407.9 289.8,334.3 301,335.5 	"/>
	<polygon class="st17" points="298.3,407.9 295.6,407.9 295.6,334.9 298.3,335.2 	"/>
	<path class="st0" d="M321.3,419.6h-51.8c-0.8,0-1.4-0.7-1.4-1.5c0-0.5,0.2-0.9,0.6-1.1l8.2-6c4-2.9,8.7-4.5,13.6-4.5h9.9
		c4.9,0,9.7,1.6,13.6,4.5l8.2,6c0.6,0.5,0.8,1.4,0.3,2C322.2,419.3,321.8,419.6,321.3,419.6z"/>
</g>
<g>
	<path class="st4" d="M57,55.2c1.9,0,3.5,0.3,5,1c1.4,0.6,2.5,1.5,3.3,2.7s1.1,2.6,1.1,4.1s-0.4,3-1.1,4.2c-0.8,1.2-1.8,2.1-3.3,2.7
		c-1.4,0.6-3.1,1-5,1h-3.9v5.3c0,0.7-0.3,1.3-0.8,1.8s-1.1,0.7-1.9,0.7c-0.7,0-1.3-0.2-1.9-0.7c-0.5-0.5-0.8-1.1-0.8-1.7V57.8
		c0-0.7,0.3-1.3,0.8-1.8s1.1-0.7,1.9-0.7L57,55.2L57,55.2z M57,66.2c1.2,0,2.2-0.3,2.9-0.9S61,64,61,63s-0.4-1.7-1.1-2.3
		c-0.7-0.6-1.7-0.9-2.9-0.9h-3.9v6.3H57V66.2z"/>
	<path class="st4" d="M79.4,62.1c1.2,0.6,2.1,1.4,2.7,2.4s1,2.2,1,3.4v8.3c0,0.6-0.2,1.1-0.7,1.6c-0.5,0.4-1,0.7-1.7,0.7
		c-0.6,0-1.1-0.2-1.5-0.5s-0.7-0.7-0.8-1.2H78c-0.5,0.6-1.1,1.1-1.9,1.5c-0.8,0.4-1.7,0.6-2.6,0.6c-1.1,0-2-0.2-2.9-0.7
		c-0.8-0.5-1.5-1.1-2-1.8c-0.5-0.8-0.7-1.6-0.7-2.5c0-1.6,0.6-3,1.9-4c1.2-1,3-1.6,5.3-1.6h3.2V68c0-0.9-0.3-1.6-0.8-2.1
		s-1.2-0.8-2.1-0.8c-0.5,0-0.9,0.1-1.2,0.2c-0.3,0.2-0.7,0.4-1.1,0.9c-0.4,0.4-0.7,0.6-1,0.7s-0.7,0.2-1.1,0.2
		c-0.6,0-1.1-0.2-1.5-0.5c-0.4-0.4-0.6-0.8-0.6-1.4c0-0.5,0.2-1,0.5-1.4c0.4-0.5,0.8-0.9,1.4-1.3c1.2-0.8,2.7-1.3,4.5-1.3
		C76.9,61.2,78.2,61.5,79.4,62.1z M78.2,71.5H75c-0.7,0-1.3,0.2-1.7,0.6c-0.4,0.4-0.6,0.8-0.6,1.4c0,0.5,0.2,0.9,0.5,1.3
		c0.4,0.3,0.9,0.5,1.6,0.5c0.6,0,1.2-0.2,1.9-0.5c0.6-0.3,1.2-0.7,1.6-1.2v-2.1H78.2z"/>
	<path class="st4" d="M101.2,62.2c0.5,0.4,0.7,1,0.7,1.6v14.9c0,1.3-0.3,2.4-1,3.5s-1.6,1.9-2.9,2.5c-1.2,0.6-2.7,0.9-4.3,0.9
		c-1.1,0-2.1-0.1-3-0.4c-0.9-0.3-1.7-0.6-2.3-1.1c-1-0.7-1.5-1.5-1.5-2.3c0-0.6,0.2-1,0.6-1.4s0.9-0.5,1.5-0.5c0.3,0,0.5,0,0.8,0.1
		s0.6,0.3,0.9,0.5c0.5,0.4,1,0.7,1.5,0.8s1,0.2,1.6,0.2c1,0,1.8-0.3,2.4-0.8c0.6-0.6,0.9-1.3,0.9-2.1v-2.4h-0.3
		c-0.4,0.6-0.9,1-1.6,1.3S93.7,78,92.9,78c-1.1,0-2.2-0.3-3.2-0.9s-1.8-1.5-2.4-2.6s-0.9-2.3-0.9-3.6v-2.7c0-1.3,0.3-2.5,0.9-3.6
		s1.4-1.9,2.4-2.6c1-0.6,2.1-0.9,3.2-0.9c1,0,1.8,0.2,2.5,0.6s1.2,0.9,1.5,1.4h0.4c0.1-0.5,0.4-0.9,0.7-1.2c0.4-0.3,0.9-0.5,1.6-0.5
		C100.2,61.5,100.8,61.7,101.2,62.2z M91.2,71c0,0.9,0.3,1.6,0.9,2.2s1.3,0.9,2.1,0.9c0.8,0,1.5-0.3,2.1-0.9s0.9-1.3,0.9-2.2v-2.7
		c0-0.9-0.3-1.6-0.9-2.2s-1.3-0.9-2.1-0.9c-0.8,0-1.5,0.3-2.1,0.9s-0.9,1.3-0.9,2.2V71z"/>
	<path class="st4" d="M117.3,62.1c1.2,0.6,2.1,1.5,2.8,2.6c0.7,1.1,1,2.3,1,3.6v1.1c0,0.6-0.2,1.1-0.7,1.6c-0.5,0.4-1,0.7-1.7,0.7
		h-8.4V72c0,0.9,0.3,1.7,0.8,2.3c0.6,0.6,1.3,0.9,2.3,0.9c0.6,0,1.2-0.1,1.7-0.2s1-0.4,1.5-0.7c0.4-0.2,0.7-0.4,1-0.5
		s0.5-0.1,0.9-0.1c0.5,0,1,0.2,1.3,0.5c0.3,0.4,0.5,0.8,0.5,1.2c0,0.4-0.1,0.7-0.3,1.1s-0.6,0.8-1,1.1c-0.6,0.4-1.4,0.8-2.4,1
		c-1,0.3-2.1,0.4-3.3,0.4c-1.5,0-2.9-0.3-4.1-1c-1.2-0.6-2.1-1.5-2.8-2.6c-0.7-1.1-1-2.3-1-3.5v-3.5c0-1.3,0.3-2.5,1-3.6
		s1.6-1.9,2.8-2.6s2.5-0.9,4.1-0.9C114.7,61.2,116.1,61.5,117.3,62.1z M111.1,65.9c-0.6,0.6-0.9,1.3-0.9,2.2v0.1h6l0,0
		c0-0.9-0.3-1.7-0.8-2.2c-0.5-0.6-1.3-0.9-2.2-0.9C112.4,65.1,111.7,65.4,111.1,65.9z"/>
	<path class="st4" d="M137.3,77.8c-1.5-0.8-2.6-1.8-3.4-3.2s-1.2-2.9-1.2-4.7V57.3c0-0.7,0.3-1.3,0.8-1.8s1.1-0.7,1.9-0.7
		c0.7,0,1.4,0.2,1.9,0.7s0.8,1.1,0.8,1.8v12.6c0,1.3,0.4,2.4,1.2,3.2c0.8,0.8,1.9,1.2,3.1,1.2c1.3,0,2.3-0.4,3.1-1.2
		c0.8-0.8,1.2-1.9,1.2-3.2V57.3c0-0.7,0.3-1.3,0.8-1.8s1.1-0.7,1.9-0.7c0.7,0,1.3,0.2,1.9,0.7c0.5,0.5,0.8,1.1,0.8,1.8v12.6
		c0,1.7-0.4,3.3-1.2,4.7s-1.9,2.4-3.4,3.2c-1.5,0.8-3.1,1.2-5,1.2C140.4,79,138.8,78.6,137.3,77.8z"/>
	<path class="st4" d="M168.4,62c0.9,0.6,1.7,1.4,2.2,2.4s0.8,2.2,0.8,3.6v8.2c0,0.6-0.2,1.1-0.7,1.6c-0.5,0.4-1,0.7-1.7,0.7
		s-1.3-0.2-1.7-0.7c-0.5-0.4-0.7-1-0.7-1.6v-8.1c0-0.9-0.3-1.6-0.8-2.1s-1.2-0.8-2-0.8s-1.5,0.3-2,0.8s-0.8,1.2-0.8,2.1v8.2
		c0,0.6-0.2,1.1-0.7,1.6c-0.5,0.4-1,0.7-1.7,0.7s-1.3-0.2-1.7-0.7c-0.5-0.4-0.7-1-0.7-1.6V63.8c0-0.6,0.2-1.2,0.7-1.6s1-0.6,1.7-0.6
		s1.2,0.2,1.5,0.5c0.4,0.3,0.6,0.7,0.7,1.2h0.4c0.3-0.5,0.8-1,1.6-1.4s1.6-0.6,2.5-0.6C166.5,61.2,167.5,61.5,168.4,62z"/>
	<path class="st4" d="M189.7,55.5c0.5,0.4,0.7,1,0.7,1.6v19.1c0,0.6-0.2,1.1-0.7,1.6c-0.5,0.4-1,0.7-1.7,0.7c-0.5,0-1-0.2-1.5-0.5
		c-0.4-0.3-0.7-0.7-0.8-1.2h-0.4c-0.4,0.6-0.9,1.1-1.7,1.5c-0.7,0.4-1.5,0.6-2.4,0.6c-1.1,0-2.2-0.3-3.2-0.9s-1.8-1.5-2.4-2.6
		c-0.6-1.1-0.9-2.3-0.9-3.6v-3.5c0-1.3,0.3-2.5,0.9-3.6c0.6-1.1,1.4-1.9,2.4-2.6c1-0.6,2.1-0.9,3.2-0.9c0.8,0,1.6,0.2,2.3,0.5
		s1.3,0.7,1.7,1.3h0.4v-5.9c0-0.6,0.2-1.1,0.7-1.6c0.5-0.4,1-0.7,1.7-0.7C188.6,54.9,189.2,55.1,189.7,55.5z M185.6,68.3
		c0-0.9-0.3-1.6-0.9-2.2c-0.6-0.6-1.3-0.9-2.1-0.9s-1.5,0.3-2.1,0.9s-0.9,1.3-0.9,2.2v3.5c0,0.9,0.3,1.6,0.9,2.2
		c0.6,0.6,1.3,0.9,2.1,0.9s1.5-0.3,2.1-0.9s0.9-1.3,0.9-2.2V68.3z"/>
	<path class="st4" d="M205.7,62.1c1.2,0.6,2.1,1.5,2.8,2.6s1,2.3,1,3.6v1.1c0,0.6-0.2,1.1-0.7,1.6c-0.5,0.4-1,0.7-1.7,0.7h-8.4V72
		c0,0.9,0.3,1.7,0.8,2.3c0.6,0.6,1.3,0.9,2.3,0.9c0.6,0,1.2-0.1,1.7-0.2s1-0.4,1.5-0.7c0.4-0.2,0.7-0.4,1-0.5s0.5-0.1,0.9-0.1
		c0.5,0,1,0.2,1.3,0.5c0.3,0.4,0.5,0.8,0.5,1.2c0,0.4-0.1,0.7-0.3,1.1s-0.6,0.8-1,1.1c-0.6,0.4-1.4,0.8-2.4,1
		c-1,0.3-2.1,0.4-3.3,0.4c-1.5,0-2.9-0.3-4.1-1s-2.1-1.5-2.8-2.6s-1-2.3-1-3.5v-3.5c0-1.3,0.3-2.5,1-3.6s1.6-1.9,2.8-2.6
		c1.2-0.6,2.5-0.9,4.1-0.9C203.2,61.2,204.5,61.5,205.7,62.1z M199.5,65.9c-0.6,0.6-0.9,1.3-0.9,2.2v0.1h6l0,0
		c0-0.9-0.3-1.7-0.8-2.2c-0.5-0.6-1.3-0.9-2.2-0.9C200.8,65.1,200.1,65.4,199.5,65.9z"/>
	<path class="st4" d="M222.4,61.4c0.6,0,1.1,0.2,1.5,0.6s0.6,0.9,0.6,1.5s-0.2,1.1-0.6,1.5c-0.4,0.4-0.9,0.6-1.5,0.6h-1.8
		c-0.9,0-1.6,0.3-2.1,0.8s-0.8,1.2-0.8,2v8c0,0.6-0.2,1.1-0.7,1.6c-0.5,0.4-1,0.7-1.7,0.7s-1.3-0.2-1.7-0.7c-0.5-0.4-0.7-1-0.7-1.6
		V63.9c0-0.6,0.2-1.2,0.7-1.6s1-0.6,1.7-0.6c0.6,0,1.1,0.2,1.5,0.5s0.7,0.7,0.8,1.2h0.3c0.3-0.5,0.8-0.9,1.4-1.3
		c0.6-0.4,1.3-0.5,1.9-0.5h1.2V61.4z"/>
	<path class="st4" d="M244.4,55.2c2,0,3.7,0.4,5.3,1.2s2.7,1.9,3.6,3.4c0.8,1.4,1.3,3.1,1.3,4.9v4.1c0,1.8-0.4,3.5-1.3,4.9
		c-0.8,1.4-2,2.6-3.6,3.4c-1.5,0.8-3.3,1.2-5.3,1.2h-6.3c-0.7,0-1.4-0.2-1.9-0.7s-0.8-1.1-0.8-1.8V57.7c0-0.7,0.3-1.3,0.8-1.8
		s1.1-0.7,1.9-0.7H244.4z M249.1,64.7c0-1.5-0.4-2.6-1.3-3.5c-0.9-0.9-2-1.4-3.4-1.4h-3.6v13.9h3.6c1.4,0,2.6-0.5,3.4-1.4
		c0.9-0.9,1.3-2.1,1.3-3.6V64.7z"/>
	<path class="st4" d="M269.6,62.1c1.2,0.6,2.1,1.5,2.8,2.6c0.7,1.1,1,2.3,1,3.6v1.1c0,0.6-0.2,1.1-0.7,1.6c-0.5,0.4-1,0.7-1.7,0.7
		h-8.4V72c0,0.9,0.3,1.7,0.8,2.3c0.6,0.6,1.3,0.9,2.3,0.9c0.6,0,1.2-0.1,1.7-0.2s1-0.4,1.5-0.7c0.4-0.2,0.7-0.4,1-0.5
		s0.5-0.1,0.9-0.1c0.5,0,1,0.2,1.3,0.5c0.3,0.4,0.5,0.8,0.5,1.2c0,0.4-0.1,0.7-0.3,1.1c-0.2,0.4-0.6,0.8-1,1.1
		c-0.6,0.4-1.4,0.8-2.4,1c-1,0.3-2.1,0.4-3.3,0.4c-1.5,0-2.9-0.3-4.1-1s-2.1-1.5-2.8-2.6c-0.7-1.1-1-2.3-1-3.5v-3.5
		c0-1.3,0.3-2.5,1-3.6s1.6-1.9,2.8-2.6c1.2-0.6,2.5-0.9,4.1-0.9C267,61.2,268.4,61.5,269.6,62.1z M263.4,65.9
		c-0.6,0.6-0.9,1.3-0.9,2.2v0.1h6l0,0c0-0.9-0.3-1.7-0.8-2.2c-0.5-0.6-1.3-0.9-2.2-0.9C264.7,65.1,264,65.4,263.4,65.9z"/>
	<path class="st4" d="M280.8,78.2c-0.5-0.4-1-1-1.2-1.7L275,64.9c-0.1-0.3-0.2-0.7-0.2-1c0-0.6,0.2-1.2,0.7-1.6s1-0.7,1.7-0.7
		c1.2,0,2.1,0.7,2.5,2l3.2,9.3h0.3l3.2-9.3c0.4-1.3,1.2-2,2.5-2c0.7,0,1.3,0.2,1.7,0.7c0.5,0.4,0.7,1,0.7,1.6c0,0.3-0.1,0.6-0.2,0.9
		l-4.6,11.7c-0.3,0.7-0.7,1.3-1.3,1.7c-0.5,0.4-1.3,0.6-2.2,0.6C282.1,78.8,281.4,78.6,280.8,78.2z"/>
	<path class="st4" d="M304.9,62.1c1.2,0.6,2.1,1.5,2.8,2.6c0.7,1.1,1,2.3,1,3.6v1.1c0,0.6-0.2,1.1-0.7,1.6c-0.5,0.4-1,0.7-1.7,0.7
		h-8.4V72c0,0.9,0.3,1.7,0.8,2.3c0.6,0.6,1.3,0.9,2.3,0.9c0.6,0,1.2-0.1,1.7-0.2s1-0.4,1.5-0.7c0.4-0.2,0.7-0.4,1-0.5
		s0.5-0.1,0.9-0.1c0.5,0,1,0.2,1.3,0.5c0.3,0.4,0.5,0.8,0.5,1.2c0,0.4-0.1,0.7-0.3,1.1c-0.2,0.4-0.6,0.8-1,1.1
		c-0.6,0.4-1.4,0.8-2.4,1c-1,0.3-2.1,0.4-3.3,0.4c-1.5,0-2.9-0.3-4.1-1s-2.1-1.5-2.8-2.6c-0.7-1.1-1-2.3-1-3.5v-3.5
		c0-1.3,0.3-2.5,1-3.6s1.6-1.9,2.8-2.6c1.2-0.6,2.5-0.9,4.1-0.9C302.4,61.2,303.7,61.5,304.9,62.1z M298.7,65.9
		c-0.6,0.6-0.9,1.3-0.9,2.2v0.1h6l0,0c0-0.9-0.3-1.7-0.8-2.2c-0.5-0.6-1.3-0.9-2.2-0.9C300,65.1,299.3,65.4,298.7,65.9z"/>
	<path class="st4" d="M312.6,77.8c-0.5-0.4-0.7-1-0.7-1.6V57.1c0-0.6,0.2-1.1,0.7-1.6c0.5-0.4,1-0.7,1.7-0.7s1.3,0.2,1.7,0.7
		c0.5,0.4,0.7,1,0.7,1.6v19.1c0,0.6-0.2,1.1-0.7,1.6c-0.5,0.4-1,0.7-1.7,0.7C313.7,78.5,313.1,78.3,312.6,77.8z"/>
	<path class="st4" d="M324.1,77.9c-1.2-0.6-2.1-1.5-2.8-2.6c-0.7-1.1-1-2.3-1-3.5v-3.5c0-1.3,0.3-2.5,1-3.6s1.6-1.9,2.8-2.6
		s2.6-0.9,4.1-0.9s2.9,0.3,4.1,0.9s2.1,1.5,2.8,2.6c0.7,1.1,1,2.3,1,3.6v3.5c0,1.3-0.3,2.5-1,3.5c-0.7,1.1-1.6,1.9-2.8,2.6
		c-1.2,0.6-2.6,1-4.1,1C326.6,78.8,325.3,78.5,324.1,77.9z M330.4,73.9c0.6-0.6,0.9-1.3,0.9-2.2v-3.5c0-0.9-0.3-1.6-0.9-2.2
		s-1.3-0.9-2.2-0.9c-0.9,0-1.6,0.3-2.2,0.9s-0.9,1.3-0.9,2.2v3.5c0,0.9,0.3,1.6,0.9,2.2s1.3,0.9,2.2,0.9
		C329.1,74.8,329.8,74.5,330.4,73.9z"/>
	<path class="st4" d="M351.8,62.1c1,0.6,1.8,1.5,2.4,2.6s0.9,2.3,0.9,3.6v3.5c0,1.3-0.3,2.5-0.9,3.6s-1.4,1.9-2.4,2.6
		c-1,0.6-2.1,0.9-3.2,0.9c-0.9,0-1.8-0.2-2.5-0.5c-0.7-0.4-1.2-0.8-1.5-1.2h-0.3v6.3c0,0.6-0.2,1.1-0.7,1.6c-0.5,0.4-1,0.7-1.7,0.7
		s-1.3-0.2-1.7-0.7c-0.5-0.4-0.7-1-0.7-1.6V63.9c0-0.6,0.2-1.2,0.7-1.6c0.4-0.4,1-0.6,1.7-0.6c0.6,0,1.1,0.2,1.5,0.5
		s0.7,0.7,0.8,1.2h0.3c0.3-0.5,0.8-1,1.6-1.4c0.7-0.4,1.5-0.6,2.5-0.6C349.7,61.2,350.8,61.5,351.8,62.1z M350.3,68.3
		c0-0.9-0.3-1.6-0.9-2.2s-1.3-0.9-2.1-0.9c-0.8,0-1.5,0.3-2.1,0.9s-0.9,1.3-0.9,2.2v3.5c0,0.9,0.3,1.6,0.9,2.2s1.3,0.9,2.1,0.9
		c0.8,0,1.5-0.3,2.1-0.9s0.9-1.3,0.9-2.2V68.3z"/>
	<path class="st4" d="M380,62c0.9,0.6,1.6,1.3,2.2,2.3c0.5,1,0.8,2.1,0.8,3.3v8.5c0,0.6-0.2,1.1-0.7,1.6c-0.5,0.4-1,0.7-1.7,0.7
		s-1.3-0.2-1.7-0.7c-0.5-0.4-0.7-1-0.7-1.6v-8.5c0-0.8-0.2-1.4-0.7-1.9s-1.1-0.7-1.8-0.7c-0.7,0-1.3,0.2-1.8,0.7
		c-0.4,0.5-0.7,1.1-0.7,1.9v8.5c0,0.6-0.2,1.1-0.7,1.6c-0.5,0.4-1,0.7-1.7,0.7s-1.3-0.2-1.7-0.7c-0.5-0.4-0.7-1-0.7-1.6v-8.5
		c0-0.8-0.2-1.4-0.7-1.9s-1.1-0.7-1.8-0.7c-0.8,0-1.4,0.2-1.8,0.7s-0.7,1.1-0.7,2v8.4c0,0.6-0.2,1.1-0.7,1.6c-0.5,0.4-1,0.7-1.7,0.7
		s-1.3-0.2-1.7-0.7c-0.5-0.4-0.7-1-0.7-1.6V63.6c0-0.6,0.2-1.2,0.7-1.6s1-0.6,1.7-0.6c0.6,0,1.1,0.2,1.5,0.5s0.6,0.7,0.8,1.2h0.4
		c0.4-0.6,0.9-1.1,1.6-1.5s1.4-0.5,2.3-0.5s1.7,0.2,2.5,0.6s1.4,0.9,1.9,1.7h0.3c0.5-0.7,1.2-1.3,2-1.7c0.8-0.4,1.7-0.6,2.7-0.6
		C378,61.2,379.1,61.5,380,62z"/>
	<path class="st4" d="M398.2,62.1c1.2,0.6,2.1,1.5,2.8,2.6c0.7,1.1,1,2.3,1,3.6v1.1c0,0.6-0.2,1.1-0.7,1.6c-0.5,0.4-1,0.7-1.7,0.7
		h-8.4V72c0,0.9,0.3,1.7,0.8,2.3c0.6,0.6,1.3,0.9,2.3,0.9c0.6,0,1.2-0.1,1.7-0.2s1-0.4,1.5-0.7c0.4-0.2,0.7-0.4,1-0.5
		s0.5-0.1,0.9-0.1c0.5,0,1,0.2,1.3,0.5c0.3,0.4,0.5,0.8,0.5,1.2c0,0.4-0.1,0.7-0.3,1.1c-0.2,0.4-0.6,0.8-1,1.1
		c-0.6,0.4-1.4,0.8-2.4,1c-1,0.3-2.1,0.4-3.3,0.4c-1.5,0-2.9-0.3-4.1-1s-2.1-1.5-2.8-2.6c-0.7-1.1-1-2.3-1-3.5v-3.5
		c0-1.3,0.3-2.5,1-3.6s1.6-1.9,2.8-2.6c1.2-0.6,2.5-0.9,4.1-0.9C395.6,61.2,397,61.5,398.2,62.1z M392,65.9
		c-0.6,0.6-0.9,1.3-0.9,2.2v0.1h6l0,0c0-0.9-0.3-1.7-0.8-2.2c-0.5-0.6-1.3-0.9-2.2-0.9C393.3,65.1,392.5,65.4,392,65.9z"/>
	<path class="st4" d="M417.5,62c0.9,0.6,1.7,1.4,2.2,2.4s0.8,2.2,0.8,3.6v8.2c0,0.6-0.2,1.1-0.7,1.6c-0.5,0.4-1,0.7-1.7,0.7
		s-1.3-0.2-1.7-0.7c-0.5-0.4-0.7-1-0.7-1.6v-8.1c0-0.9-0.3-1.6-0.8-2.1s-1.2-0.8-2-0.8s-1.5,0.3-2,0.8s-0.8,1.2-0.8,2.1v8.2
		c0,0.6-0.2,1.1-0.7,1.6c-0.5,0.4-1,0.7-1.7,0.7s-1.3-0.2-1.7-0.7c-0.5-0.4-0.7-1-0.7-1.6V63.8c0-0.6,0.2-1.2,0.7-1.6s1-0.6,1.7-0.6
		s1.2,0.2,1.5,0.5c0.4,0.3,0.6,0.7,0.7,1.2h0.4c0.3-0.5,0.8-1,1.6-1.4s1.6-0.6,2.5-0.6C415.5,61.2,416.5,61.5,417.5,62z"/>
	<path class="st4" d="M433.9,74.3c0.6,0,1.1,0.2,1.5,0.6s0.6,0.9,0.6,1.5s-0.2,1.1-0.6,1.5s-0.9,0.6-1.5,0.6h-2.7
		c-1.2,0-2.2-0.3-3.2-0.8c-0.9-0.5-1.7-1.2-2.2-2.1s-0.8-1.9-0.8-3v-6.7h-0.3c-0.6,0-1.1-0.2-1.6-0.5c-0.4-0.4-0.7-0.9-0.7-1.5
		s0.2-1.1,0.7-1.5c0.4-0.4,1-0.5,1.6-0.5h0.3V60c0-0.6,0.2-1.1,0.7-1.6c0.5-0.4,1-0.7,1.7-0.7s1.3,0.2,1.7,0.7
		c0.5,0.4,0.7,1,0.7,1.6v1.9h3.3c0.6,0,1.1,0.2,1.6,0.6s0.6,0.9,0.6,1.5s-0.2,1.1-0.6,1.4c-0.4,0.4-0.9,0.6-1.6,0.6h-3.3v6.7
		c0,0.6,0.1,1.1,0.4,1.4s0.7,0.5,1.2,0.5h2.5V74.3z"/>
	<path class="st4" d="M447.9,70.4c-0.4-0.4-0.7-1-0.7-1.7l-0.6-11.2c0-0.8,0.2-1.5,0.8-2s1.3-0.8,2.1-0.8c0.9,0,1.6,0.3,2.1,0.8
		c0.5,0.6,0.8,1.2,0.7,2l-0.6,11.2c0,0.7-0.3,1.3-0.7,1.7c-0.4,0.4-1,0.7-1.6,0.7C448.8,71,448.3,70.8,447.9,70.4z M447.5,77.9
		c-0.5-0.5-0.8-1.2-0.8-1.9c0-0.8,0.3-1.4,0.8-2c0.5-0.5,1.2-0.8,2-0.8s1.5,0.3,2,0.8s0.8,1.2,0.8,2s-0.3,1.4-0.8,2
		c-0.5,0.5-1.2,0.8-2,0.8C448.7,78.6,448,78.4,447.5,77.9z"/>
</g>
</svg>
